<svg width="21" height="22" viewBox="0 0 21 22" fill="none" xmlns="http://www.w3.org/2000/svg">
<g clip-path="url(#clip0_741_29)">
<path d="M6 0C6.82969 0 7.5 0.614453 7.5 1.375V2.75H13.5V1.375C13.5 0.614453 14.1703 0 15 0C15.8297 0 16.5 0.614453 16.5 1.375V2.75H18.75C19.9922 2.75 21 3.67383 21 4.8125V6.875H0V4.8125C0 3.67383 1.00781 2.75 2.25 2.75H4.5V1.375C4.5 0.614453 5.17031 0 6 0ZM0 8.25H21V19.9375C21 21.0762 19.9922 22 18.75 22H2.25C1.00781 22 0 21.0762 0 19.9375V8.25ZM3 11.6875V13.0625C3 13.4406 3.3375 13.75 3.75 13.75H5.25C5.6625 13.75 6 13.4406 6 13.0625V11.6875C6 11.3094 5.6625 11 5.25 11H3.75C3.3375 11 3 11.3094 3 11.6875ZM9 11.6875V13.0625C9 13.4406 9.3375 13.75 9.75 13.75H11.25C11.6625 13.75 12 13.4406 12 13.0625V11.6875C12 11.3094 11.6625 11 11.25 11H9.75C9.3375 11 9 11.3094 9 11.6875ZM15.75 11C15.3375 11 15 11.3094 15 11.6875V13.0625C15 13.4406 15.3375 13.75 15.75 13.75H17.25C17.6625 13.75 18 13.4406 18 13.0625V11.6875C18 11.3094 17.6625 11 17.25 11H15.75ZM3 17.1875V18.5625C3 18.9406 3.3375 19.25 3.75 19.25H5.25C5.6625 19.25 6 18.9406 6 18.5625V17.1875C6 16.8094 5.6625 16.5 5.25 16.5H3.75C3.3375 16.5 3 16.8094 3 17.1875ZM9.75 16.5C9.3375 16.5 9 16.8094 9 17.1875V18.5625C9 18.9406 9.3375 19.25 9.75 19.25H11.25C11.6625 19.25 12 18.9406 12 18.5625V17.1875C12 16.8094 11.6625 16.5 11.25 16.5H9.75ZM15 17.1875V18.5625C15 18.9406 15.3375 19.25 15.75 19.25H17.25C17.6625 19.25 18 18.9406 18 18.5625V17.1875C18 16.8094 17.6625 16.5 17.25 16.5H15.75C15.3375 16.5 15 16.8094 15 17.1875Z" fill="#636D84"/>
</g>
<defs>
<clipPath id="clip0_741_29">
<rect width="21" height="22" fill="white"/>
</clipPath>
</defs>
</svg>
