<svg width="70" height="56" viewBox="0 0 70 56" fill="none" xmlns="http://www.w3.org/2000/svg">
<path d="M62.2222 6C63.2917 6 64.1667 6.9 64.1667 8V12H5.83333V8C5.83333 6.9 6.70833 6 7.77778 6H62.2222ZM64.1667 24V48C64.1667 49.1 63.2917 50 62.2222 50H7.77778C6.70833 50 5.83333 49.1 5.83333 48V24H64.1667ZM7.77778 0C3.48785 0 0 3.5875 0 8V48C0 52.4125 3.48785 56 7.77778 56H62.2222C66.5122 56 70 52.4125 70 48V8C70 3.5875 66.5122 0 62.2222 0H7.77778ZM14.5833 38C12.967 38 11.6667 39.3375 11.6667 41C11.6667 42.6625 12.967 44 14.5833 44H20.4167C22.033 44 23.3333 42.6625 23.3333 41C23.3333 39.3375 22.033 38 20.4167 38H14.5833ZM30.1389 38C28.5226 38 27.2222 39.3375 27.2222 41C27.2222 42.6625 28.5226 44 30.1389 44H43.75C45.3663 44 46.6667 42.6625 46.6667 41C46.6667 39.3375 45.3663 38 43.75 38H30.1389Z" fill="white"/>
</svg>
