<?xml version="1.0" encoding="utf-8"?>
<!DOCTYPE svg PUBLIC "-//W3C//DTD SVG 1.0//EN" "http://www.w3.org/TR/2001/REC-SVG-20010904/DTD/svg10.dtd">
<svg version="1.0" xmlns="http://www.w3.org/2000/svg" width="651px" height="617px" viewBox="0 0 651 617" preserveAspectRatio="xMidYMid meet">
 <g fill="none" stroke="#398adf" stroke-width="0.5">
  <path d="M0 308.50 l0 -308.50 325.50 0 325.50 0 0 308.50 0 308.50 -325.50 0 -325.50 0 0 -308.50z m342.30 244 c53.90 -3.55 103.35 -23.70 143.70 -58.55 8.15 -7 21.45 -20.55 28.05 -28.45 22.45 -26.90 38.60 -57.60 47.60 -90.50 6.55 -23.90 9.25 -45.55 8.65 -69.50 -1.20 -49 -16.65 -94.50 -45.95 -135.50 -18.55 -25.95 -44.10 -49.40 -71.85 -66 -4.30 -2.60 -8.80 -5.10 -11.25 -6.35 -1.65 -0.85 -4.10 -2.10 -5.50 -2.80 -3.45 -1.75 -11.20 -5.35 -11.45 -5.35 -0.15 0 -1.50 -0.55 -3 -1.25 -1.50 -0.70 -2.90 -1.25 -3.05 -1.25 -0.20 0 -1.05 -0.35 -1.90 -0.75 -3.30 -1.50 -16.25 -5.80 -24.95 -8.25 -27.65 -7.85 -60.45 -10.40 -89.40 -6.95 -48.75 5.75 -93.70 25.60 -131.25 58 -4.95 4.25 -20.05 19.30 -23.30 23.20 -0.95 1.10 -1.85 2.10 -2 2.25 -1.85 1.55 -15.90 20.35 -19.25 25.75 -6.25 10.15 -6.40 10.35 -9.50 16 -19.85 36.10 -30.85 80.90 -29.55 120 1.25 35.90 9.05 67.95 24.30 99.50 12.45 25.70 28 47.30 48.85 67.75 9.10 8.90 11.55 11.05 22.40 19.45 25 19.35 56.25 34.60 86.80 42.30 24.95 6.30 49.65 8.75 72.80 7.25z"/>
  <path d="M306.50 540.25 c-18.90 -1.95 -35.65 -5.45 -50.75 -10.50 -4.70 -1.55 -12.85 -4.55 -15 -5.50 -0.80 -0.35 -2.50 -1.05 -3.75 -1.60 -2.95 -1.20 -18.85 -9.15 -23.05 -11.55 -24.30 -13.75 -48.05 -34.35 -66.50 -57.60 -23.80 -30.05 -40.05 -67.55 -45.95 -106 -3.65 -23.70 -3.30 -55.40 0.80 -77.50 3.10 -16.80 7.10 -30.95 12.80 -45 21.10 -52.25 59.10 -93.75 109.15 -119.25 18.20 -9.25 37.65 -16 57.50 -20 30.70 -6.15 63.85 -6.10 94.75 0.05 26.45 5.25 55.50 17.30 78.75 32.55 6.40 4.20 14.50 10.05 17.55 12.60 0.85 0.70 2.85 2.45 4.45 3.80 38.45 32.60 64.75 75.55 75.75 123.50 7.90 34.50 7.85 71.60 -0.05 106 -2.60 11.25 -6.75 24.45 -10.95 34.50 -1.15 2.75 -2.45 5.90 -2.90 7 -0.85 2.15 -7.80 15.80 -9.45 18.75 -6.40 11.15 -16.40 25.85 -21.80 32 -0.60 0.70 -1.60 1.90 -2.25 2.70 -4.40 5.70 -16 17.65 -23.60 24.30 -16.40 14.40 -31.10 24.35 -50 33.80 -23.95 11.90 -47.30 18.85 -76 22.50 -8.85 1.10 -40.25 1.40 -49.50 0.45z m48.25 -46.85 c-0.15 -3.10 -0.65 -12.50 -1.05 -20.90 -0.40 -8.40 -0.95 -19.50 -1.20 -24.75 -0.25 -5.20 -0.70 -14.20 -1 -20 -0.25 -5.75 -0.85 -16.80 -1.25 -24.50 -1 -18.70 -1.15 -16.75 1.20 -16.75 1.95 0 2 0.05 4.95 4.90 3.85 6.25 23.55 38.90 28.60 47.35 10.55 17.70 23.65 39.25 23.85 39.10 0.10 -0.10 -0.85 -2.90 -2.15 -6.15 -1.25 -3.25 -3.60 -9.45 -5.20 -13.70 -1.65 -4.25 -4.55 -11.90 -6.50 -17 -1.95 -5.10 -4.90 -12.85 -6.60 -17.25 -1.65 -4.40 -3.45 -9.10 -4 -10.50 -0.50 -1.35 -1.70 -4.50 -2.65 -7 -0.90 -2.45 -2.85 -7.55 -4.25 -11.25 -5.30 -13.75 -6 -15.80 -6 -17.35 0 -1.60 0.05 -1.65 2.10 -1.65 1.80 0 2.45 0.35 5.35 2.90 1.80 1.60 6.55 5.70 10.50 9.15 18.25 15.75 23.85 20.60 30.30 26.20 3.80 3.30 10.55 9.15 15 13 4.45 3.85 10.55 9.10 13.55 11.70 3 2.60 5.90 5.10 6.40 5.50 0.55 0.45 -1.50 -2.25 -4.45 -5.95 -3 -3.70 -9.90 -12.25 -15.30 -19 -17.55 -21.85 -24.95 -31 -35.55 -44.10 -9.10 -11.30 -10.40 -13.10 -10.40 -14.65 0 -1.70 0.05 -1.75 2 -1.75 1.90 0 6.80 1.80 17 6.25 2.35 1 5.25 2.25 6.50 2.75 2.55 1 21.95 9.20 24.25 10.25 1.60 0.75 22.70 9.65 27.25 11.50 2.75 1.15 17.80 7.50 22 9.30 3.55 1.55 1.75 0.25 -11.75 -8.50 -15.30 -9.95 -22.30 -14.55 -36.45 -23.85 -6 -3.95 -11 -7.20 -11.10 -7.20 -0.05 0 -2.80 -1.75 -6.05 -3.90 -3.25 -2.15 -8.35 -5.50 -11.40 -7.45 -10.80 -7.05 -10.75 -7 -10.75 -9 l0 -1.80 7.10 0.35 c3.95 0.15 10.40 0.65 14.40 1.05 4 0.40 12.65 1.15 19.25 1.75 20.85 1.75 46.70 3.95 55.50 4.75 14.85 1.30 15.50 1.35 15.25 1.10 -0.15 -0.15 -2.50 -0.85 -5.25 -1.60 -2.75 -0.70 -6.55 -1.70 -8.50 -2.25 -1.90 -0.50 -5.50 -1.45 -8 -2.15 -2.45 -0.70 -7.65 -2.10 -11.50 -3.10 -3.85 -1.05 -8.90 -2.40 -11.25 -3.10 -2.35 -0.65 -6.70 -1.85 -9.75 -2.65 -6 -1.55 -6.55 -1.70 -20.50 -5.50 -5.20 -1.40 -11.15 -3 -13.10 -3.55 -4.85 -1.25 -9.95 -2.65 -15.15 -4.10 l-4.25 -1.15 0 -1.90 0 -1.90 4.75 -1.15 c2.60 -0.65 11.30 -2.65 19.25 -4.50 8 -1.85 16.85 -3.90 19.75 -4.60 7.70 -1.80 19.90 -4.65 22.45 -5.20 2.25 -0.45 13.10 -3 22.30 -5.15 2.75 -0.65 7.70 -1.80 11 -2.55 3.30 -0.75 7.15 -1.70 8.50 -2.10 l2.50 -0.65 -3.50 0.25 c-1.90 0.15 -8.55 0.50 -14.75 0.75 -6.20 0.25 -17.65 0.85 -25.50 1.25 -7.85 0.40 -21 1.10 -29.25 1.50 -8.25 0.40 -19.95 1 -26 1.35 -16.75 0.90 -15.45 1 -15.65 -1.10 -0.15 -1.65 0 -1.85 2.50 -3.30 1.45 -0.85 9.20 -5.50 17.15 -10.30 8 -4.80 27.65 -16.70 43.75 -26.40 16.10 -9.65 29.35 -17.75 29.50 -17.90 0.15 -0.15 -0.20 -0.10 -0.75 0.10 -0.55 0.25 -2.35 0.90 -4 1.55 -1.65 0.60 -5.80 2.20 -9.25 3.50 -3.45 1.30 -9.05 3.45 -12.50 4.75 -3.45 1.35 -9.30 3.55 -13 5 -3.70 1.40 -8.45 3.20 -10.50 4 -9.40 3.50 -35.95 13.60 -37.50 14.20 -8 3.30 -12.60 4.85 -13.85 4.70 -1.20 -0.15 -1.40 -0.40 -1.55 -1.90 -0.15 -1.70 0.65 -2.70 13.50 -17.55 7.50 -8.70 14.80 -17.10 16.15 -18.70 1.40 -1.65 3.05 -3.55 3.70 -4.25 0.65 -0.70 3.55 -4.05 6.50 -7.50 2.90 -3.45 5.55 -6.45 5.85 -6.75 0.30 -0.25 3.45 -3.85 7 -8 3.50 -4.10 8.50 -9.95 11.10 -12.90 2.60 -2.95 4.65 -5.45 4.55 -5.55 -0.10 -0.10 -4.90 3.65 -10.70 8.30 -5.75 4.65 -14.30 11.55 -19 15.30 -4.65 3.75 -14.90 12.05 -22.75 18.35 -7.85 6.35 -17.70 14.25 -21.90 17.65 -6.70 5.40 -7.85 6.15 -9.25 6 -2.40 -0.25 -2.35 -2.05 0.20 -8.10 1.15 -2.80 4.30 -10.20 6.95 -16.55 2.70 -6.30 6.05 -14.30 7.50 -17.75 1.45 -3.45 4.85 -11.55 7.60 -18 2.75 -6.45 6.25 -14.65 7.75 -18.25 1.50 -3.55 3 -7.15 3.40 -8 0.35 -0.80 1.10 -2.60 1.65 -4 0.55 -1.35 1.80 -4.40 2.80 -6.75 2.15 -5.10 1.70 -4.55 -5.40 6.35 -2.80 4.35 -6.85 10.55 -8.95 13.75 -2.10 3.25 -5.50 8.45 -7.50 11.50 -2.05 3.10 -5.65 8.70 -8.10 12.40 -2.40 3.70 -5.40 8.35 -6.65 10.25 -1.25 1.95 -5.25 8 -8.85 13.50 -3.60 5.50 -7.75 11.85 -9.20 14.10 -2.50 3.90 -2.75 4.15 -4.40 4.15 l-1.80 0 0.30 -5.85 c0.25 -5.45 1.10 -15.90 2.35 -29.40 0.30 -3 0.85 -9.55 1.25 -14.50 0.40 -4.95 1.30 -15.50 2 -23.50 2.80 -32.40 3.30 -38.40 3.05 -38.60 -0.10 -0.10 -0.35 0.55 -0.55 1.45 -0.20 0.90 -0.80 3.25 -1.30 5.15 -0.55 1.95 -1.20 4.30 -1.45 5.25 -5.55 20.45 -10.10 37.30 -12.25 45 -0.95 3.45 -1.85 6.95 -2.05 7.75 -0.15 0.85 -0.95 3.75 -1.75 6.50 -0.75 2.75 -1.95 7.15 -2.65 9.75 -0.70 2.60 -2.35 8.80 -3.70 13.75 -1.35 4.95 -2.70 9.90 -2.95 11 -0.40 1.85 -0.60 2 -2.25 2.15 -1.40 0.10 -1.90 -0.05 -2.10 -0.75 -0.15 -0.50 -2.75 -11.70 -5.80 -24.90 -3.05 -13.20 -6.10 -26.25 -6.75 -29 -1.10 -4.45 -3.65 -15.55 -6.30 -27 -6.30 -27.50 -6.60 -28.75 -6.75 -28.60 -0.05 0.05 0.10 3.95 0.35 8.60 0.25 4.70 0.80 15.35 1.20 23.75 1.40 29.45 1.75 36.30 2.25 44 0.50 8.20 1.50 30.80 1.50 34.40 l0 2.10 -1.95 0 -1.95 0 -7.90 -13.10 c-4.40 -7.20 -8.40 -13.85 -8.95 -14.85 -0.55 -1 -2.35 -3.90 -3.95 -6.50 -1.60 -2.60 -3.30 -5.40 -3.80 -6.25 -0.45 -0.85 -5.75 -9.65 -11.75 -19.55 -6 -9.90 -12.20 -20.15 -13.75 -22.75 -3.85 -6.55 -5.05 -8.50 -5.25 -8.50 -0.10 0 1.40 4.10 3.30 9.10 1.95 5.05 4.80 12.65 6.40 16.90 1.60 4.25 3.90 10.25 5.05 13.25 5.50 14.30 10.45 27.15 15.85 41.50 1.75 4.70 4 10.45 4.95 12.85 1.15 2.95 1.70 5.20 1.70 6.90 l0 2.50 -1.70 0 c-0.90 0 -1.95 -0.35 -2.35 -0.80 -0.35 -0.45 -4.35 -3.95 -8.90 -7.85 -4.60 -3.90 -8.50 -7.35 -8.80 -7.65 -0.25 -0.30 -3.55 -3.15 -7.25 -6.35 -9.65 -8.25 -18.35 -15.75 -25.30 -21.80 -12.55 -11 -27.40 -23.85 -28.35 -24.50 -0.85 -0.60 4.05 5.90 7.70 10.15 0.45 0.60 7 8.70 14.55 18.05 7.50 9.35 16.90 21.05 20.90 25.95 4 4.95 8.70 10.80 10.50 13 1.80 2.25 5.10 6.35 7.40 9.15 3.65 4.50 4.10 5.30 4.10 7.10 0 2 -0.05 2.05 -1.70 2.05 -1.55 0 -3.20 -0.50 -7.05 -2.25 -0.80 -0.35 -4.55 -1.90 -8.25 -3.45 -3.70 -1.55 -7.20 -3.05 -7.75 -3.30 -0.55 -0.25 -4.80 -2.05 -9.50 -4 -4.65 -2 -12.90 -5.45 -18.25 -7.75 -14.75 -6.25 -28 -11.85 -35.50 -14.95 -3.70 -1.55 -7.20 -3.05 -7.75 -3.30 -1.95 -0.90 -4.75 -1.95 -4.75 -1.80 0 0.15 12.90 8.70 29.60 19.55 6 3.90 16.05 10.45 35.90 23.45 10.05 6.55 19.55 12.75 21.15 13.75 2.50 1.60 2.85 2 2.85 3.45 0 1 -0.30 1.75 -0.75 1.90 -0.40 0.15 -3.70 0.05 -7.35 -0.25 -3.65 -0.35 -10.45 -0.90 -15.15 -1.30 -4.65 -0.40 -12.45 -1.05 -17.25 -1.50 -19.60 -1.70 -26.20 -2.30 -35 -3 -5.10 -0.40 -10.15 -0.85 -11.25 -1 -1.10 -0.15 -6.40 -0.60 -11.75 -1.05 -5.35 -0.40 -10.75 -0.85 -12 -0.95 l-2.25 -0.20 2.25 0.70 c4.40 1.40 16.50 4.75 27.25 7.50 1.40 0.35 6.80 1.80 12 3.25 5.25 1.40 10.65 2.85 12 3.25 2.80 0.70 21.55 5.85 31.25 8.50 3.45 0.90 8.95 2.40 12.25 3.25 3.30 0.90 7 1.90 8.20 2.30 1.25 0.40 2.65 0.70 3.15 0.70 0.70 0 0.90 0.40 0.90 2 0 1.70 -0.15 2 -1.05 2 -0.55 0 -3.20 0.55 -5.85 1.20 -2.65 0.65 -8.90 2.10 -13.85 3.25 -4.95 1.15 -11.25 2.65 -14 3.30 -2.75 0.60 -7.15 1.65 -9.75 2.20 -2.60 0.60 -6.10 1.40 -7.75 1.80 -1.65 0.40 -8.40 2 -15 3.50 -6.60 1.55 -13.40 3.10 -15.10 3.50 -1.75 0.40 -4.55 1.10 -6.25 1.50 -1.75 0.40 -5.15 1.20 -7.65 1.75 -9.70 2.25 -13.25 3.15 -13.25 3.35 0 0.20 8.65 -0.15 20.50 -0.85 4.25 -0.30 15.50 -0.85 25 -1.25 9.50 -0.40 18.70 -0.85 20.50 -1 1.80 -0.15 10.70 -0.60 19.75 -1 9.10 -0.40 18.80 -0.90 21.65 -1.05 l5.15 -0.35 -0.15 1.90 -0.15 1.95 -15.50 9.40 c-8.50 5.15 -16.60 10.05 -18 10.80 -1.35 0.80 -10.60 6.35 -20.50 12.35 -9.90 5.95 -22.55 13.60 -28.10 16.95 -5.55 3.30 -10.05 6.10 -9.95 6.15 0.10 0.15 12.85 -4.55 14.55 -5.35 1.30 -0.60 9.35 -3.65 14.50 -5.50 2.20 -0.75 6.35 -2.35 9.25 -3.50 2.90 -1.15 7.40 -2.85 10 -3.80 2.60 -0.95 7 -2.60 9.75 -3.70 2.75 -1.05 10.40 -4 17 -6.50 6.60 -2.55 13.35 -5.10 15 -5.75 7.30 -2.85 8.60 -3.25 10.40 -3.25 1.80 0 1.85 0.05 1.85 1.90 0 1.70 -0.60 2.60 -6.10 8.90 -3.40 3.85 -9.50 10.95 -13.65 15.70 -4.10 4.75 -9.95 11.50 -13 15 -3 3.50 -8.85 10.25 -13 15 -4.10 4.80 -8.40 9.75 -9.55 11 -6.55 7.35 -14.70 17.05 -13.40 16 0.85 -0.70 8.05 -6.50 16 -12.90 7.95 -6.40 20.40 -16.45 27.65 -22.25 7.20 -5.85 18.80 -15.15 25.70 -20.70 11.40 -9.25 12.70 -10.15 14.45 -10.15 1.85 0 1.90 0.05 1.90 1.75 0 1 -0.60 3.20 -1.30 4.90 -3.85 9.25 -13.95 33.05 -15.20 35.85 -0.75 1.80 -2.20 5.15 -3.15 7.50 -1 2.35 -4.35 10.35 -7.50 17.75 -3.15 7.45 -7.25 17.10 -9.10 21.50 -1.85 4.40 -3.75 8.95 -4.25 10.15 -0.55 1.15 -0.85 2.10 -0.80 2.10 0.10 0 1.35 -1.85 2.85 -4.10 1.45 -2.30 5.45 -8.40 8.85 -13.65 3.45 -5.20 8.35 -12.75 10.95 -16.75 2.60 -4 8.35 -12.80 12.80 -19.65 4.45 -6.80 11.05 -16.85 14.60 -22.40 9.30 -14.35 9 -13.95 11.10 -13.95 l1.80 0 -0.30 4.65 c-0.35 4.55 -0.85 10.60 -2.85 33.35 -0.55 6.45 -1.25 14.45 -1.50 17.75 -0.30 3.30 -0.85 9.70 -1.25 14.25 -0.90 9.80 -2.65 30.20 -3 35.50 -0.15 2.05 -0.40 4.65 -0.50 5.75 -0.25 2.05 6.55 -22.50 20.45 -74 4.25 -15.65 8 -29.45 8.30 -30.60 0.50 -2.05 0.65 -2.15 2.40 -2.15 l1.90 0 2.65 11.40 c1.45 6.25 3.20 13.60 3.85 16.35 2.05 8.85 5.70 24.30 7.20 31 0.80 3.60 3.05 13.25 5 21.50 1.95 8.25 4.20 18.20 5.10 22.15 0.85 3.90 1.65 7.10 1.75 7.10 0.10 0 0.05 -2.55 -0.10 -5.60z"/>
  <path d="M324.50 365.20 c-13.80 -1.55 -23.65 -5.90 -32.40 -14.40 -11.95 -11.55 -17.60 -26.85 -16.15 -43.70 0.65 -7.50 1.15 -10 2.95 -15.15 1.85 -5.20 2.60 -6.75 5.75 -11.45 7.20 -10.80 18.30 -18.50 31.35 -21.80 3 -0.75 5.60 -0.95 13.25 -0.95 8.25 0 10.10 0.15 14.25 1.15 8.95 2.20 17.25 6.95 24.05 13.80 10.35 10.35 15.45 23.05 15.45 38.50 0 24.05 -13.55 43.55 -35.75 51.50 -4.55 1.65 -17.65 3.10 -22.75 2.50z m7.20 -18.20 c1.60 -0.85 3.15 -1.50 3.45 -1.50 1.40 0 6.95 -4.15 11.30 -8.45 4.80 -4.75 7.20 -7.80 8.35 -10.80 3.40 -8.65 3.30 -8.10 3.10 -15 l-0.20 -6.50 -2.30 -4.75 c-1.90 -3.90 -2.90 -5.35 -5.75 -8 -4.65 -4.40 -5.20 -4.80 -8.25 -6.05 -1.45 -0.60 -3.45 -1.45 -4.40 -1.85 -1.20 -0.55 -3.20 -0.85 -6.25 -0.85 -4.35 0 -4.70 0.10 -9 2.20 -3.40 1.70 -5.35 3.10 -7.85 5.65 -1.90 1.85 -3.40 3.60 -3.40 3.85 0 0.25 -0.50 1.10 -1.15 1.90 -2.60 3.15 -3.35 11 -1.45 15.15 1.50 3.20 7.80 9.25 10.35 9.95 3 0.80 4.75 0.65 7.50 -0.65 5.85 -2.70 7.85 -7.45 4.70 -11.05 -1.80 -2 -2.45 -2.15 -3.70 -0.75 -0.60 0.70 -0.90 1.85 -0.95 3.85 l-0.05 2.90 -3.70 0.15 c-3.20 0.15 -3.90 0 -5.50 -1.05 -1.05 -0.70 -2.30 -2.20 -3 -3.60 -1.10 -2.20 -1.15 -2.80 -0.90 -7.15 0.40 -5.70 1.85 -8.70 5.70 -11.90 5.55 -4.55 14.85 -5.55 21.50 -2.25 1.70 0.85 3.30 1.55 3.55 1.55 0.95 0 6.15 6.15 7.15 8.45 0.60 1.25 1.30 2.85 1.60 3.50 0.40 0.75 0.60 4 0.55 8.75 -0.05 8.75 -0.60 10.80 -4.30 16.55 -2.60 4 -9.80 10.90 -12.55 11.95 -2.50 0.95 -3.20 1.25 -5.40 2.25 -1.25 0.60 -2.50 1.05 -2.85 1.05 -0.70 0 -1.60 1.60 -1.60 2.95 0 1.55 2.15 1.35 5.70 -0.45z"/>
 </g>
 <g fill="#ffffff">
  <path d="M312.75 553.95 c-14.90 -1.05 -30.05 -3.50 -44.75 -7.20 -15.10 -3.80 -31.35 -9.85 -45.85 -16.95 -18.20 -8.95 -32.30 -18.15 -50.70 -33.05 -5.55 -4.45 -20.85 -19.70 -26.65 -26.45 -21.30 -24.95 -36.95 -52.55 -47 -83.05 -10.90 -32.85 -14.60 -68.55 -10.75 -103 3.45 -31.20 13.30 -62.45 28.15 -89.50 3.10 -5.65 3.25 -5.85 9.50 -16 3.35 -5.40 17.40 -24.20 19.25 -25.75 0.15 -0.15 1.05 -1.15 2 -2.25 3.25 -3.90 18.35 -18.95 23.30 -23.20 11.65 -10.05 22.85 -18.10 36 -25.85 29.15 -17.30 61.35 -28.15 95.25 -32.15 17.65 -2.10 41.35 -2 58.20 0.20 17 2.20 31.75 5.55 47.05 10.70 8.40 2.80 10.25 3.50 12.10 4.30 0.85 0.40 1.70 0.75 1.90 0.75 0.15 0 1.55 0.55 3.05 1.25 1.50 0.70 2.85 1.25 3 1.25 0.25 0 8 3.60 11.45 5.35 1.40 0.70 3.85 1.95 5.50 2.80 2.45 1.25 6.95 3.75 11.25 6.35 27.75 16.60 53.30 40.05 71.85 66 25.40 35.55 40 73.50 44.90 116.75 1.60 14.10 1.50 38.90 -0.20 53.75 -5.45 47.20 -24.40 91.30 -55 128 -6.60 7.90 -19.90 21.45 -28.05 28.45 -40.35 34.85 -89.80 55 -143.70 58.55 -8.90 0.55 -22.75 0.55 -31.05 -0.05z m41.75 -15.65 c36.15 -4.60 67.40 -15.60 96.50 -33.95 18.65 -11.80 41.80 -32.15 53.10 -46.65 0.65 -0.80 1.65 -2 2.25 -2.70 5.40 -6.15 15.40 -20.85 21.80 -32 1.65 -2.95 8.60 -16.60 9.45 -18.75 0.45 -1.10 1.75 -4.25 2.90 -7 11.35 -27.30 17.10 -58.15 16.70 -89.20 -0.15 -11.10 -0.25 -13.05 -1.50 -23.55 -6.65 -57.75 -34.80 -109.95 -79.95 -148.25 -1.60 -1.35 -3.60 -3.10 -4.45 -3.80 -6.20 -5.25 -20.95 -15.10 -30.55 -20.50 -43.20 -24.15 -91.50 -33.55 -140.75 -27.40 -45.45 5.65 -86.75 24.35 -122.55 55.45 -35.45 30.85 -61.85 75.80 -71.85 122.50 -5.85 27.15 -6.75 56.50 -2.60 83.50 5.90 38.45 22.15 75.95 45.95 106 18.45 23.25 42.20 43.85 66.50 57.60 4.20 2.40 20.10 10.35 23.05 11.55 1.25 0.55 2.95 1.25 3.75 1.60 2.15 0.95 10.30 3.95 15 5.50 15.10 5.05 31.80 8.50 50.75 10.50 9.05 0.95 37.65 0.65 46.50 -0.45z"/>
  <path d="M356.80 515.25 c-0.15 -0.45 -1.65 -6.65 -3.30 -13.90 -1.65 -7.20 -3.45 -14.90 -4 -17.10 -0.50 -2.20 -2.40 -10.40 -4.25 -18.25 -1.80 -7.85 -3.95 -17.05 -4.75 -20.50 -0.80 -3.45 -2.25 -9.75 -3.25 -14 -1 -4.25 -2.30 -10 -2.95 -12.75 -0.65 -2.75 -2.40 -10.10 -3.85 -16.35 -1.45 -6.30 -2.80 -11.40 -3.05 -11.40 -0.20 0 -0.60 0.95 -0.90 2.15 -0.30 1.15 -3.45 12.80 -7 25.85 -3.55 13.05 -10.40 38.50 -15.25 56.50 -9.95 36.85 -10.85 40 -11.10 39.15 -0.15 -0.35 0.10 -4.20 0.55 -8.50 0.40 -4.35 1 -10.80 1.30 -14.40 0.85 -10.90 2.45 -29.55 3.25 -38.25 0.40 -4.55 0.95 -10.95 1.25 -14.25 0.25 -3.30 0.95 -11.30 1.50 -17.75 0.55 -6.45 1.35 -15.55 1.75 -20.25 0.40 -4.65 0.85 -9.95 1.05 -11.70 0.25 -2.20 0.20 -3.10 -0.15 -2.90 -0.55 0.35 -2.25 2.85 -11.45 16.95 -2.45 3.80 -8.10 12.45 -12.55 19.25 -4.45 6.85 -10.20 15.65 -12.80 19.65 -2.60 4 -7.10 10.85 -9.95 15.25 -2.90 4.40 -6.90 10.60 -9 13.75 -2.05 3.15 -5.65 8.70 -8 12.30 -2.35 3.60 -4.90 7.50 -5.60 8.65 -0.75 1.20 -1.45 2.05 -1.60 1.95 -0.20 -0.20 0.70 -2.35 7.55 -18.40 1.45 -3.45 4.15 -9.85 6 -14.25 1.85 -4.40 5.95 -14.05 9.10 -21.50 3.15 -7.40 6.50 -15.40 7.50 -17.75 0.95 -2.35 2.40 -5.70 3.15 -7.50 0.80 -1.80 4.25 -9.90 7.70 -18 10 -23.80 9.10 -21.50 8.35 -21.50 -0.20 0 -3.55 2.55 -7.35 5.65 -6.60 5.35 -17.70 14.30 -53.25 42.90 -32 25.70 -38.70 31.10 -39.30 31.60 -1.60 1.20 -0.25 -0.60 5 -6.55 3.05 -3.55 7.50 -8.65 9.85 -11.35 2.35 -2.70 6.75 -7.80 9.75 -11.25 3.05 -3.50 8.90 -10.25 13 -15 4.15 -4.75 10 -11.50 13 -15 3.05 -3.50 8.90 -10.25 13 -15 4.15 -4.80 9.95 -11.50 12.95 -14.95 3 -3.45 5.80 -6.70 6.20 -7.20 1.65 -1.90 0.50 -1.65 -8.65 1.90 -1.65 0.65 -8.40 3.20 -15 5.75 -6.60 2.50 -14.25 5.45 -17 6.50 -2.75 1.10 -7.15 2.75 -9.75 3.70 -2.60 0.95 -7.10 2.65 -10 3.80 -2.90 1.15 -7.05 2.75 -9.25 3.50 -5.20 1.85 -13.20 4.90 -14.50 5.50 -0.55 0.25 -4.25 1.70 -8.25 3.20 -4 1.50 -11.75 4.40 -17.20 6.50 -5.50 2.10 -10.05 3.70 -10.15 3.60 -0.10 -0.10 1.90 -1.40 4.45 -2.95 4.65 -2.70 31.15 -18.70 56.40 -34 7.30 -4.40 14.40 -8.65 15.75 -9.45 5.85 -3.35 32.95 -19.90 33.45 -20.45 0.40 -0.40 -0.25 -0.50 -2.70 -0.25 -1.80 0.15 -11 0.65 -20.50 1.05 -9.50 0.40 -18.60 0.85 -20.25 1 -1.65 0.15 -10.75 0.60 -20.25 1 -9.50 0.40 -20.85 0.95 -25.25 1.25 -4.40 0.25 -13.40 0.70 -20 1 -6.60 0.25 -13.75 0.65 -15.95 0.80 -2.75 0.20 -3.85 0.15 -3.60 -0.20 0.20 -0.30 1.15 -0.70 2.20 -0.85 2.10 -0.40 7.65 -1.60 18.10 -4.10 4 -0.90 8.70 -2.05 10.50 -2.45 3.30 -0.75 7 -1.60 12.65 -2.95 1.70 -0.40 8.50 -1.95 15.10 -3.50 6.60 -1.50 13.35 -3.10 15 -3.50 1.65 -0.40 5.15 -1.20 7.75 -1.80 2.60 -0.55 7 -1.60 9.75 -2.20 2.75 -0.65 9.05 -2.15 14 -3.30 4.95 -1.15 11.20 -2.60 13.85 -3.25 2.65 -0.65 5.30 -1.20 5.85 -1.20 0.60 0 1.05 -0.20 1.05 -0.50 0 -0.25 -0.40 -0.50 -0.90 -0.50 -0.50 0 -1.90 -0.30 -3.15 -0.70 -1.20 -0.40 -4.90 -1.40 -8.20 -2.30 -3.30 -0.85 -8.80 -2.35 -12.25 -3.25 -9.70 -2.65 -28.45 -7.80 -31.25 -8.50 -1.35 -0.40 -6.75 -1.85 -12 -3.25 -5.20 -1.45 -10.60 -2.90 -12 -3.25 -6.30 -1.60 -14.95 -3.95 -19.75 -5.30 -7.55 -2.15 -9.40 -2.65 -17.50 -4.75 -8 -2.05 -9.80 -2.90 -5.50 -2.55 1.50 0.10 6.15 0.45 10.25 0.80 4.15 0.30 9.20 0.75 11.25 1.05 2.05 0.25 7.35 0.75 11.75 1 4.40 0.30 8.55 0.65 9.25 0.75 0.70 0.15 5.60 0.60 10.95 1 9.15 0.75 13.50 1.10 35.05 3 4.80 0.45 12.70 1.10 17.50 1.50 4.80 0.40 11.10 0.95 14 1.20 2.85 0.25 5.40 0.35 5.65 0.20 0.25 -0.15 -1.55 -1.55 -3.95 -3.15 -2.45 -1.60 -12 -7.80 -21.20 -13.80 -9.20 -6.05 -19.85 -13 -23.65 -15.45 -47.30 -30.85 -57.90 -37.85 -57.70 -38.05 0.20 -0.20 18.45 7.30 25.10 10.30 0.55 0.25 4.05 1.75 7.75 3.30 7.50 3.10 20.75 8.70 35.50 14.95 5.35 2.30 13.60 5.75 18.25 7.75 4.70 1.95 8.95 3.75 9.50 4 0.55 0.25 4.05 1.75 7.75 3.30 3.70 1.55 7.45 3.10 8.25 3.45 2.10 0.95 5.35 2.25 5.55 2.25 0.80 0 -0.35 -1.80 -3.90 -6.15 -2.30 -2.80 -5.60 -6.90 -7.40 -9.15 -1.80 -2.20 -6.50 -8.05 -10.50 -13 -4 -4.90 -13.40 -16.60 -20.90 -25.95 -7.55 -9.35 -14.05 -17.45 -14.50 -18 -1.35 -1.60 -20.75 -25.75 -21.80 -27.05 -0.50 -0.70 -0.85 -1.35 -0.75 -1.45 0.10 -0.10 4.40 3.50 9.50 7.90 5.10 4.45 14.10 12.25 19.95 17.35 5.90 5.10 13.40 11.65 16.70 14.55 6.95 6.05 15.65 13.55 25.30 21.80 3.70 3.20 7 6.05 7.25 6.35 0.30 0.30 3.65 3.25 7.50 6.50 3.85 3.30 7.95 6.85 9.15 8 1.90 1.80 2.10 1.90 2.10 0.90 0 -0.60 -0.75 -3.05 -1.70 -5.50 -0.95 -2.40 -3.20 -8.15 -4.95 -12.85 -6.75 -17.85 -10.45 -27.60 -11.35 -29.80 -0.55 -1.25 -1.75 -4.40 -2.70 -7 -0.95 -2.60 -3.70 -9.75 -6.05 -15.95 -2.35 -6.20 -5.30 -13.95 -6.55 -17.20 -1.25 -3.25 -4.40 -11.55 -7 -18.40 -2.65 -6.85 -4.70 -12.55 -4.55 -12.70 0.20 -0.25 6.50 9.95 15.65 25.40 1.65 2.85 7.95 13.25 13.95 23.15 6 9.90 11.30 18.70 11.75 19.55 0.50 0.85 2.20 3.65 3.80 6.25 1.60 2.60 3.40 5.50 3.95 6.50 3.90 6.90 16.95 27.95 17.40 27.95 0.30 0 0.40 -1.85 0.20 -5.40 -0.20 -2.95 -0.45 -8.85 -0.60 -13.10 -0.15 -4.25 -0.50 -11.10 -0.75 -15.25 -0.50 -7.35 -0.85 -13.55 -2.25 -43.50 -0.40 -8.25 -0.95 -19.25 -1.20 -24.50 -0.25 -5.20 -0.60 -13.30 -0.75 -18 l-0.25 -8.50 1.25 5 c0.70 2.75 1.45 5.80 1.70 6.75 0.25 0.95 1.60 6.70 3 12.75 2.60 11.55 3.55 15.55 5.95 25.75 0.80 3.45 1.95 8.40 2.55 11 0.55 2.60 1.60 7 2.25 9.75 0.65 2.75 3.70 15.80 6.75 29 3.05 13.20 5.65 24.40 5.80 24.90 0.40 1.30 1.05 0.60 1.45 -1.50 0.20 -1.05 1.45 -5.95 2.80 -10.90 1.40 -4.95 3.05 -11.15 3.75 -13.75 0.70 -2.60 1.90 -7 2.65 -9.75 0.80 -2.75 1.60 -5.65 1.75 -6.50 0.20 -0.80 1.10 -4.30 2.05 -7.75 1.85 -6.70 6.30 -22.95 10.55 -38.75 1.30 -4.85 1.65 -6.05 3.20 -11.75 0.55 -2.05 2.15 -7.90 3.55 -13 1.35 -5.05 2.60 -9.30 2.70 -9.45 0.40 -0.40 0.25 2.95 -0.50 11.70 -0.45 4.70 -1.20 13.70 -1.75 20 -0.55 6.35 -1.55 18.05 -2.25 26 -0.70 8 -1.60 18.65 -2 23.75 -0.40 5.10 -0.95 11.40 -1.20 14 -0.30 2.60 -0.60 6.55 -0.80 8.75 -0.15 2.20 -0.65 7.75 -1.05 12.30 -0.45 4.55 -0.70 9.05 -0.60 10 0.15 1.70 0.15 1.70 2.85 -2.55 1.50 -2.35 5.70 -8.75 9.30 -14.25 3.60 -5.50 7.60 -11.55 8.85 -13.50 1.25 -1.90 4.20 -6.50 6.60 -10.10 2.35 -3.65 6.25 -9.65 8.60 -13.25 2.40 -3.65 6.75 -10.35 9.75 -14.90 2.95 -4.55 6.80 -10.45 8.55 -13.10 15.35 -23.65 16.95 -26 16.05 -23.55 -0.15 0.50 -1.50 3.85 -3 7.40 -4.70 11.20 -11.15 26.45 -11.65 27.50 -0.25 0.55 -1.65 3.95 -3.15 7.50 -1.50 3.60 -5 11.80 -7.75 18.25 -2.75 6.45 -6.15 14.55 -7.60 18 -2.25 5.40 -7.60 18.05 -14.45 34.25 -1.05 2.50 -1.85 4.65 -1.70 4.85 0.10 0.20 3.60 -2.35 7.80 -5.75 4.15 -3.35 13.85 -11.20 21.60 -17.40 7.70 -6.20 17.85 -14.35 22.50 -18.15 25.85 -20.85 48.35 -38.85 48.50 -38.70 0.15 0.15 -3.35 4.25 -18.25 21.45 -3.45 3.95 -9.20 10.60 -12.70 14.70 -3.55 4.15 -6.70 7.75 -7 8 -0.30 0.30 -2.95 3.30 -5.85 6.75 -2.95 3.45 -5.85 6.80 -6.50 7.50 -0.65 0.70 -2.30 2.60 -3.70 4.25 -1.35 1.60 -8.65 10 -16.10 18.65 -7.50 8.65 -13.50 15.90 -13.40 16.10 0.15 0.25 2.20 -0.40 4.65 -1.35 2.40 -0.95 5.15 -2 6.10 -2.35 0.95 -0.35 9.65 -3.65 19.25 -7.30 9.65 -3.65 18.85 -7.15 20.50 -7.80 1.65 -0.60 6.05 -2.30 9.75 -3.70 3.70 -1.45 9.55 -3.65 13 -5 3.45 -1.30 9.05 -3.45 12.50 -4.75 3.45 -1.30 7.60 -2.90 9.25 -3.50 1.65 -0.65 6.60 -2.55 11 -4.25 10.60 -4.10 13.35 -5.05 13.85 -4.90 0.25 0.10 -3.55 2.55 -8.45 5.45 -7.85 4.65 -20.05 12 -81.90 49.35 -7.95 4.80 -15.65 9.45 -17.10 10.25 -1.45 0.85 -2.45 1.75 -2.30 1.95 0.15 0.25 0.55 0.35 0.95 0.20 0.35 -0.15 5.60 -0.50 11.55 -0.80 22.25 -1.05 41.15 -2 50.40 -2.50 5.25 -0.30 16.35 -0.85 24.75 -1.25 30.05 -1.40 36.75 -1.75 38.40 -1.95 1.10 -0.15 1.60 -0.05 1.50 0.30 -0.15 0.35 -2.35 1.10 -4.95 1.70 -5.95 1.40 -14.90 3.45 -20.70 4.75 -2.45 0.60 -6.75 1.60 -9.50 2.25 -10.20 2.40 -20.15 4.70 -22.30 5.15 -2.55 0.55 -14.75 3.40 -22.45 5.20 -2.90 0.70 -11.75 2.75 -19.75 4.60 -20.60 4.70 -23.50 5.45 -23.60 6 -0.15 0.50 2.45 1.30 19 5.70 1.95 0.55 7.90 2.15 13.10 3.55 13.95 3.80 14.50 3.95 20.50 5.50 3.05 0.80 7.40 2 9.75 2.65 2.35 0.65 6.95 1.95 10.25 2.80 9.35 2.50 18.70 5.05 22.25 6.05 1.80 0.50 8.95 2.45 15.90 4.30 6.90 1.90 12.60 3.55 12.60 3.70 0 0.25 -8.35 -0.40 -34.50 -2.70 -9.45 -0.85 -36.45 -3.20 -55.75 -4.80 -6.60 -0.60 -15.35 -1.35 -19.50 -1.75 -11.55 -1.10 -18.45 -1.45 -18.10 -0.95 0.30 0.55 3.05 2.40 12.35 8.50 3.70 2.40 8.75 5.70 11.15 7.30 2.45 1.60 4.50 2.90 4.55 2.90 0.10 0 5.05 3.20 10.95 7.15 5.95 3.90 15.70 10.25 21.60 14.10 5.90 3.85 14.85 9.70 19.90 13 5 3.30 12.85 8.45 17.50 11.45 8.10 5.25 10.15 6.80 7.75 5.85 -2.50 -1 -29.25 -12.25 -37.15 -15.65 -1.90 -0.85 -4.75 -2 -6.25 -2.65 -5.15 -2.10 -25.75 -10.80 -27.25 -11.50 -2.40 -1.10 -21.75 -9.30 -24.25 -10.25 -1.25 -0.50 -4.85 -2 -8 -3.40 -9.45 -4.05 -13.95 -5.80 -14.30 -5.50 -0.15 0.20 4.45 6.10 10.20 13.25 10.60 13.10 17.90 22.20 35.55 44.15 10 12.45 20.65 25.65 29.25 36.30 2.65 3.25 4.80 6.10 4.80 6.35 0 0.20 -3.20 -2.35 -7.05 -5.75 -3.90 -3.40 -9.95 -8.60 -13.45 -11.65 -3.50 -3 -11.05 -9.55 -16.75 -14.50 -25.45 -22.05 -39.55 -34.25 -46.65 -40.40 -3.45 -3 -7.70 -6.65 -9.35 -8.15 -3.15 -2.75 -4.65 -3.45 -4 -1.80 0.20 0.45 0.75 2 1.25 3.35 0.50 1.40 2.30 6.10 4 10.50 1.70 4.40 3.85 10.05 4.75 12.50 0.95 2.50 2.15 5.65 2.65 7 1.50 3.80 7.40 19.30 9.80 25.75 1.20 3.15 3 7.80 3.95 10.25 0.95 2.50 3.70 9.70 6.10 16 2.40 6.35 6.25 16.40 8.55 22.45 2.30 6 4.20 11 4.20 11.15 0 0.60 -1.05 -0.60 -2.15 -2.50 -0.65 -1.15 -7.45 -12.45 -15.10 -25.10 -7.65 -12.65 -15.60 -25.90 -17.75 -29.50 -5.05 -8.50 -24.75 -41.10 -28.60 -47.35 -1.65 -2.70 -3.20 -4.90 -3.45 -4.90 -0.30 0 -0.35 1.75 -0.20 4.40 0.35 5.55 1.60 29.55 2.25 44.10 0.30 6.20 0.75 14.95 1 19.50 0.25 4.55 0.70 13.65 1 20.25 0.30 6.60 0.75 15.60 1 20 1.20 19.80 1.20 21.35 0.30 19z m-17.55 -152.55 c4.65 -0.90 6.65 -1.45 9.75 -2.80 21.90 -9.35 34.70 -31.10 32.10 -54.50 -1.35 -12.15 -6.35 -22.50 -15.05 -31.20 -6.80 -6.85 -15.10 -11.60 -24.05 -13.80 -6.35 -1.55 -18.70 -1.65 -24.50 -0.20 -20.95 5.25 -36.55 22.15 -39.50 42.85 -2.55 17.80 2.90 33.95 15.60 46.25 8.75 8.50 18.80 12.95 32.40 14.40 2.75 0.30 8.85 -0.15 13.25 -1z"/>
  <path d="M324.50 347.95 c0 -3.10 0.60 -4.95 1.60 -4.95 0.35 0 1.60 -0.45 2.85 -1.05 2.20 -1 2.90 -1.30 5.40 -2.25 2.75 -1.05 9.95 -7.95 12.55 -11.95 3.50 -5.45 4.20 -7.95 4.30 -15.05 0.05 -3.65 -0.20 -6.50 -0.55 -7.25 -0.30 -0.65 -1 -2.25 -1.60 -3.50 -1 -2.30 -6.20 -8.45 -7.15 -8.45 -0.25 0 -1.80 -0.65 -3.45 -1.50 -4.45 -2.20 -8.25 -2.45 -12.85 -0.85 -6.80 2.35 -10.70 7 -11.35 13.40 -0.30 2.95 -0.20 3.70 0.85 5.75 1.55 3.15 4.10 4.80 6.95 4.60 2.10 -0.15 2.20 -0.20 2.05 -1.65 -0.30 -3.20 -0.15 -3.85 0.95 -5.05 0.85 -0.90 1.65 -1.20 3.25 -1.20 1.80 0 2.35 0.25 3.65 1.75 1.40 1.65 1.55 2.10 1.55 5.25 0 3.35 -0.10 3.60 -1.85 5.60 -2.60 2.80 -6.10 4.40 -9.90 4.40 -5 0 -6.60 -0.70 -10.65 -4.65 -4.90 -4.80 -5.75 -6.75 -5.80 -12.85 -0.05 -5.35 0.80 -9.05 2.55 -11.15 0.65 -0.80 1.15 -1.65 1.15 -1.90 0 -0.25 1.50 -2 3.40 -3.85 2.50 -2.55 4.45 -3.95 7.85 -5.65 l4.45 -2.20 6.05 0 c4.50 0 6.45 0.20 7.75 0.80 0.95 0.45 2.95 1.30 4.40 1.90 3.05 1.25 3.60 1.65 8.25 6.05 2.85 2.65 3.85 4.05 5.60 7.75 2.70 5.80 2.85 6.50 2.80 14.45 0 6.85 0 6.75 -3.25 15.05 -1.15 3 -3.55 6.05 -8.35 10.80 -4.35 4.30 -9.90 8.45 -11.30 8.45 -0.30 0 -1.85 0.65 -3.45 1.50 -1.60 0.80 -3.50 1.50 -4.20 1.50 -0.70 0 -2 0.20 -2.90 0.45 l-1.60 0.50 0 -3z"/>
 </g>
</svg>