<svg width="102" height="62" viewBox="0 0 102 62" fill="none" xmlns="http://www.w3.org/2000/svg">
<path d="M91.5802 31.122C91.5841 44.4409 80.7898 55.2401 67.4708 55.2436C54.1516 55.2469 43.3527 44.4532 43.3491 31.1342C43.3491 31.1298 43.3491 31.1263 43.3491 31.122C43.3456 17.8033 54.1399 7.00354 67.4583 7C80.7775 6.99646 91.5767 17.7908 91.5802 31.1097C91.5802 31.1138 91.5802 31.1176 91.5802 31.122Z" fill="#FF9900"/>
<path d="M34.9603 7.00598C21.7203 7.09008 11 17.8618 11 31.1217C11 44.4333 21.8038 55.2371 35.1157 55.2371C41.3634 55.2371 47.0583 52.8561 51.3436 48.9538C51.3436 48.9538 51.3428 48.9532 51.3417 48.9527H51.3469C52.2243 48.153 53.0428 47.2902 53.795 46.3703H48.8543C48.1946 45.5734 47.595 44.743 47.0564 43.8862H55.5775C56.0957 43.0569 56.5649 42.1958 56.9813 41.3039H45.6495C45.2633 40.4759 44.928 39.6292 44.6417 38.7702H57.9903C58.7948 36.3664 59.2314 33.7947 59.2314 31.1214C59.2314 29.349 59.0392 27.621 58.6756 25.9572H43.9338C44.1164 25.101 44.3469 24.2551 44.6218 23.4239H57.9753C57.6767 22.5393 57.33 21.6773 56.9356 20.8418H45.6482C46.0553 19.9719 46.5167 19.1257 47.0319 18.3087H55.5467C54.9801 17.4059 54.353 16.5434 53.675 15.7263H48.9275C49.6616 14.8625 50.4697 14.0489 51.3469 13.2904C47.0613 9.38747 41.3647 7.00598 35.1157 7.00598C35.0637 7.00598 35.0123 7.00571 34.9603 7.00598Z" fill="#CC0000"/>
<path d="M89.1607 43.7295C89.2919 43.7295 89.4195 43.7635 89.5442 43.8305C89.6694 43.8974 89.7657 43.994 89.8354 44.1195C89.9051 44.2436 89.9399 44.3745 89.9399 44.5101C89.9399 44.644 89.9053 44.7735 89.8368 44.8976C89.7684 45.0215 89.6721 45.1181 89.548 45.187C89.4252 45.2547 89.2954 45.289 89.1604 45.289C89.0254 45.289 88.8959 45.2547 88.7723 45.187C88.6485 45.1178 88.5527 45.0218 88.483 44.8976C88.4144 44.7735 88.3804 44.644 88.3804 44.5101C88.3804 44.3745 88.4149 44.2436 88.4849 44.1195C88.5551 43.994 88.652 43.8982 88.7764 43.8305C88.9021 43.7635 89.0298 43.7295 89.1607 43.7295ZM89.1607 43.8588C89.0515 43.8588 88.9449 43.8871 88.8406 43.9434C88.7372 43.9998 88.6563 44.0795 88.5981 44.1851C88.539 44.2891 88.5097 44.3969 88.5097 44.5101C88.5097 44.6222 88.5385 44.7305 88.5954 44.8334C88.6536 44.936 88.7342 45.0166 88.8371 45.0743C88.9408 45.1317 89.0483 45.16 89.1604 45.16C89.2731 45.16 89.3809 45.1317 89.484 45.0743C89.5869 45.0166 89.6672 44.936 89.7246 44.8334C89.7815 44.7305 89.8098 44.6225 89.8098 44.5101C89.8098 44.3969 89.781 44.2888 89.7224 44.1851C89.6645 44.0795 89.5834 43.9998 89.4791 43.9434C89.376 43.8868 89.2698 43.8588 89.1607 43.8588ZM88.8188 44.9407V44.1018H89.1079C89.2059 44.1018 89.2772 44.1094 89.3213 44.1258C89.3654 44.1413 89.4005 44.1677 89.4269 44.2066C89.4527 44.245 89.4661 44.2858 89.4661 44.3294C89.4661 44.3909 89.4443 44.4442 89.4002 44.4894C89.3572 44.5346 89.2987 44.5604 89.2263 44.5659C89.2559 44.5781 89.2796 44.5936 89.2981 44.6105C89.3322 44.6432 89.373 44.6984 89.422 44.7765L89.524 44.9407H89.3591L89.2851 44.8086C89.2266 44.7047 89.1795 44.6399 89.1433 44.6132C89.1185 44.5944 89.0823 44.5847 89.0352 44.5847H88.9555V44.9415H88.8194M88.9544 44.4684H89.1188C89.1972 44.4684 89.2502 44.4565 89.2788 44.4333C89.3077 44.4094 89.3221 44.3789 89.3221 44.3402C89.3221 44.3152 89.3156 44.2929 89.3017 44.2738C89.2875 44.254 89.2685 44.2398 89.2437 44.2297C89.2195 44.2202 89.1743 44.2148 89.1084 44.2148H88.9549V44.4684" fill="#FCB340"/>
<path d="M43.1183 38.0407L43.4395 35.8579C43.264 35.8579 43.0059 35.9338 42.7779 35.9338C41.8841 35.9338 41.7725 35.4562 41.8427 35.1073L42.7234 30.7171H44.0821L44.3622 28.2396H43.0816L43.3423 26.7383H40.6636C40.607 26.7949 39.1482 35.1816 39.1482 36.2033C39.1482 37.7152 39.9968 38.388 41.1938 38.3774C42.1306 38.3695 42.8609 38.1101 43.1183 38.0407Z" fill="#000066"/>
<path d="M43.9312 33.8791C43.9312 37.5077 46.326 38.3696 48.3667 38.3696C50.2504 38.3696 51.2381 37.9331 51.2381 37.9331L51.6905 35.4563C51.6905 35.4563 50.0988 36.1035 48.8052 36.1035C46.0478 36.1035 46.5312 34.0476 46.5312 34.0476L51.8285 34.0636C51.8285 34.0636 52.1657 32.4004 52.1657 31.7224C52.1657 30.0303 51.2438 27.9531 48.4247 27.9531C45.8429 27.9537 43.9312 30.7355 43.9312 33.8791ZM48.4345 30.2524C49.8835 30.2524 49.6163 31.8811 49.6163 32.0131H46.7655C46.7655 31.8443 47.0347 30.2524 48.4345 30.2524Z" fill="#000066"/>
<path d="M64.6935 38.0396L65.1532 35.2406C65.1532 35.2406 63.8925 35.8723 63.0284 35.8723C61.2067 35.8723 60.476 34.4815 60.476 32.987C60.476 29.9558 62.0431 28.288 63.7877 28.288C65.0963 28.288 66.1461 29.0226 66.1461 29.0226L66.5652 26.3028C66.5652 26.3028 65.3258 25.4076 63.9916 25.4024C59.9784 25.3866 57.6821 28.1807 57.6821 33.0109C57.6821 36.2125 59.3827 38.3912 62.4468 38.3912C63.3131 38.3912 64.6935 38.0396 64.6935 38.0396Z" fill="#000066"/>
<path d="M28.9956 27.9932C27.2349 27.9932 25.8855 28.559 25.8855 28.559L25.5126 30.7709C25.5126 30.7709 26.6266 30.3183 28.3108 30.3183C29.2669 30.3183 29.9664 30.4258 29.9664 31.2029C29.9664 31.6748 29.8809 31.849 29.8809 31.849C29.8809 31.849 29.1265 31.7861 28.777 31.7861C26.2703 31.7861 24.2239 32.7338 24.2239 35.5911C24.2239 37.8428 25.7543 38.3591 26.7028 38.3591C28.5146 38.3591 29.2318 37.2151 29.2732 37.2119L29.2522 38.1612H31.5132L32.5218 31.0902C32.5218 28.0895 29.9046 27.9932 28.9956 27.9932ZM29.387 33.7349C29.4362 34.1665 29.2754 36.2078 27.7289 36.2078C26.9314 36.2078 26.7243 35.5982 26.7243 35.2384C26.7243 34.5351 27.1062 33.6916 28.9874 33.6916C29.4256 33.6916 29.3132 33.7232 29.387 33.7349Z" fill="#000066"/>
<path d="M34.9247 38.3076C35.503 38.3076 38.8091 38.4549 38.8091 35.0432C38.8091 31.8531 35.7488 32.4837 35.7488 31.2018C35.7488 30.5644 36.2477 30.3635 37.1598 30.3635C37.5215 30.3635 38.9144 30.4786 38.9144 30.4786L39.238 28.2114C39.238 28.2114 38.3366 28.0098 36.8691 28.0098C34.9696 28.0098 33.0415 28.768 33.0415 31.3624C33.0415 34.3024 36.2564 34.007 36.2564 35.2454C36.2564 36.072 35.3583 36.1401 34.6659 36.1401C33.468 36.1401 32.3897 35.7288 32.3859 35.7487L32.0432 37.9927C32.1055 38.0118 32.771 38.3076 34.9247 38.3076Z" fill="#000066"/>
<path d="M85.8729 25.9365L85.4089 29.3955C85.4089 29.3955 84.4419 28.0605 82.9289 28.0605C80.0822 28.0605 78.6152 30.8974 78.6152 34.1561C78.6152 36.26 79.6615 38.3222 81.7994 38.3222C83.3374 38.3222 84.1901 37.2496 84.1901 37.2496L84.0772 38.1654H86.5751L88.5367 25.9553L85.8729 25.9365ZM84.7701 32.6594C84.7701 34.0156 84.0984 35.8275 82.7068 35.8275C81.7825 35.8275 81.3492 35.0515 81.3492 33.8341C81.3492 31.8432 82.2433 30.5299 83.372 30.5299C84.2957 30.5299 84.7701 31.1641 84.7701 32.6594Z" fill="#000066"/>
<path d="M15.093 38.1753L16.656 28.9569L16.8857 38.1753H18.6546L21.9547 28.9569L20.4928 38.1753H23.1214L25.1456 25.9488L20.9699 25.917L18.4861 33.4028L18.4181 25.9488H14.5913L12.5381 38.1753H15.093Z" fill="#000066"/>
<path d="M54.6532 38.1929C55.4006 33.9429 55.6667 30.5865 57.8463 31.2817C58.1593 29.6367 58.9053 28.2061 59.2461 27.5099C59.2461 27.5099 59.1383 27.3496 58.4647 27.3496C57.3147 27.3496 55.7794 29.6832 55.7794 29.6832L56.0089 28.2404H53.6176L52.0161 38.1926L54.6532 38.1929Z" fill="#000066"/>
<path d="M70.0718 27.9941C68.3103 27.9941 66.9609 28.56 66.9609 28.56L66.5883 30.7719C66.5883 30.7719 67.7028 30.3193 69.3862 30.3193C70.3426 30.3193 71.0418 30.4268 71.0418 31.2039C71.0418 31.6758 70.9566 31.85 70.9566 31.85C70.9566 31.85 70.2024 31.7871 69.853 31.7871C67.346 31.7871 65.2998 32.7348 65.2998 35.5921C65.2998 37.8437 66.8299 38.36 67.7785 38.36C69.5898 38.36 70.3075 37.2161 70.3486 37.2128L70.3273 38.1622H72.5888L73.5972 31.0912C73.5975 28.0905 70.9803 27.9941 70.0718 27.9941ZM70.4626 33.7359C70.5116 34.1675 70.3508 36.2088 68.8046 36.2088C68.0065 36.2088 67.7997 35.5991 67.7997 35.2393C67.7997 34.536 68.1813 33.6926 70.0628 33.6926C70.5013 33.6926 70.3891 33.7242 70.4626 33.7359Z" fill="#000066"/>
<path d="M76.1996 38.193C76.6101 35.0663 77.3697 30.6767 79.3925 31.2817C79.7052 29.6367 79.4036 29.6411 78.7303 29.6411C77.5795 29.6411 77.3248 29.683 77.3248 29.683L77.5545 28.2402H75.1635L73.562 38.1927L76.1996 38.193Z" fill="#000066"/>
<path d="M43.7876 37.2607L44.109 35.0782C43.9335 35.0782 43.6752 35.1533 43.4474 35.1533C42.5536 35.1533 42.455 34.6781 42.5119 34.3267L43.234 29.8735H44.5924L44.9204 27.4593H43.6395L43.9003 25.958H41.3326C41.276 26.0146 39.8169 34.4016 39.8169 35.4227C39.8169 36.9347 40.6658 37.608 41.8628 37.5971C42.8002 37.5892 43.5301 37.3298 43.7876 37.2607Z" fill="white"/>
<path d="M44.6011 33.1001C44.6011 36.7287 46.9962 37.5909 49.0366 37.5909C50.9201 37.5909 51.7488 37.1698 51.7488 37.1698L52.2012 34.6934C52.2012 34.6934 50.7685 35.3245 49.4746 35.3245C46.7175 35.3245 47.2003 33.2688 47.2003 33.2688H52.4184C52.4184 33.2688 52.7553 31.605 52.7553 30.9271C52.7553 29.2352 51.9132 27.1738 49.0941 27.1738C46.5123 27.1744 44.6011 29.9562 44.6011 33.1001ZM49.1039 29.4734C50.5529 29.4734 50.2856 31.1018 50.2856 31.2335H47.4349C47.4349 31.0653 47.7044 29.4734 49.1039 29.4734Z" fill="white"/>
<path d="M65.3635 37.2602L65.8229 34.4609C65.8229 34.4609 64.5631 35.0926 63.6984 35.0926C61.877 35.0926 61.1465 33.7018 61.1465 32.2076C61.1465 29.1764 62.7137 27.5088 64.4583 27.5088C65.7666 27.5088 66.8166 28.2434 66.8166 28.2434L67.2358 25.5236C67.2358 25.5236 65.6787 24.8936 64.344 24.8936C61.3797 24.8936 58.4961 27.465 58.4961 32.2944C58.4961 35.4968 60.0532 37.6118 63.1173 37.6118C63.9836 37.6121 65.3635 37.2602 65.3635 37.2602Z" fill="white"/>
<path d="M29.6655 27.2139C27.9049 27.2139 26.5552 27.7797 26.5552 27.7797L26.1826 29.9916C26.1826 29.9916 27.2966 29.539 28.9805 29.539C29.9366 29.539 30.6361 29.6465 30.6361 30.4236C30.6361 30.8955 30.5504 31.0697 30.5504 31.0697C30.5504 31.0697 29.7962 31.0066 29.447 31.0066C27.2263 31.0066 24.8936 31.9543 24.8936 34.8115C24.8936 37.0629 26.424 37.5795 27.3725 37.5795C29.1841 37.5795 29.9649 36.404 30.0066 36.4004L29.9219 37.3816H32.1828L33.1915 30.3104C33.1915 27.3105 30.5746 27.2139 29.6655 27.2139ZM30.2156 32.9714C30.2646 33.4033 29.9448 35.428 28.3988 35.428C27.6014 35.428 27.394 34.8189 27.394 34.4585C27.394 33.7558 27.7758 32.912 29.6574 32.912C30.095 32.9126 30.1418 32.9594 30.2156 32.9714Z" fill="white"/>
<path d="M35.5943 37.5276C36.1727 37.5276 39.479 37.6746 39.479 34.2629C39.479 31.0734 36.4185 31.7034 36.4185 30.4221C36.4185 29.7841 36.9174 29.5832 37.8291 29.5832C38.1911 29.5832 39.5838 29.6984 39.5838 29.6984L39.9077 27.4312C39.9077 27.4312 39.0063 27.2295 37.5387 27.2295C35.6392 27.2295 33.7112 27.9878 33.7112 30.5821C33.7112 33.5218 36.9261 33.2268 36.9261 34.4652C36.9261 35.2917 36.0279 35.359 35.3358 35.359C34.1379 35.359 33.0593 34.948 33.0555 34.9676L32.7131 37.2119C32.7752 37.231 33.4404 37.5276 35.5943 37.5276Z" fill="white"/>
<path d="M86.6321 25.1799L86.0783 28.6166C86.0783 28.6166 85.1118 27.2816 83.5988 27.2816C81.2461 27.2816 79.2852 30.1181 79.2852 33.3774C79.2852 35.4813 80.3311 37.5427 82.4693 37.5427C84.0073 37.5427 84.86 36.4703 84.86 36.4703L84.7471 37.3862H87.2445L89.206 25.1758L86.6321 25.1799ZM85.4398 31.8807C85.4398 33.2369 84.7683 35.0485 83.3762 35.0485C82.4521 35.0485 82.0191 34.2728 82.0191 33.0554C82.0191 31.0647 82.9132 29.7512 84.0413 29.7512C84.9656 29.751 85.4398 30.3859 85.4398 31.8807Z" fill="white"/>
<path d="M15.7628 37.3957L17.3259 28.1772L17.5553 37.3957H19.3244L22.6245 28.1772L21.1626 37.3957H23.7913L25.8157 25.1689H21.7508L19.2193 32.6708L19.0876 25.1689H15.3406L13.2871 37.3957H15.7628Z" fill="white"/>
<path d="M55.3233 37.4127C56.0707 33.1625 56.2092 29.7113 57.9928 30.3431C58.3049 28.6981 58.6062 28.0617 58.947 27.3655C58.947 27.3655 58.7872 27.332 58.4519 27.332C57.302 27.332 56.4501 28.903 56.4501 28.903L56.679 27.4602H54.2882L52.6865 37.4127H55.3233Z" fill="white"/>
<path d="M71.2883 27.2139C69.5276 27.2139 68.1779 27.7797 68.1779 27.7797L67.8056 29.9916C67.8056 29.9916 68.9196 29.539 70.6035 29.539C71.5597 29.539 72.2586 29.6465 72.2586 30.4236C72.2586 30.8955 72.1734 31.0697 72.1734 31.0697C72.1734 31.0697 71.4192 31.0066 71.0697 31.0066C68.8494 31.0066 66.5166 31.9543 66.5166 34.8115C66.5166 37.0629 68.0467 37.5795 68.9953 37.5795C70.8068 37.5795 71.5877 36.404 71.6291 36.4004L71.545 37.3816C71.545 37.3816 73.8051 37.3816 73.8059 37.3816L74.8143 30.3104C74.8145 27.3105 72.1973 27.2139 71.2883 27.2139ZM71.8392 32.9714C71.8882 33.4033 71.5681 35.428 70.0216 35.428C69.2242 35.428 69.0173 34.8189 69.0173 34.4585C69.0173 33.7558 69.3992 32.912 71.2804 32.912C71.7181 32.9126 71.7646 32.9594 71.8392 32.9714Z" fill="white"/>
<path d="M76.8807 37.4127C77.6283 33.1625 77.7668 29.7113 79.5498 30.3431C79.8626 28.6981 80.1641 28.0617 80.5046 27.3655C80.5046 27.3655 80.3448 27.332 80.0095 27.332C78.8596 27.332 78.0077 28.903 78.0077 28.903L78.2366 27.4602H75.8459L74.2441 37.4127H76.8807Z" fill="white"/>
<path d="M89.1505 35.8779C89.2809 35.8779 89.4093 35.9114 89.5332 35.9794C89.6581 36.0453 89.7553 36.1422 89.8249 36.2677C89.8949 36.3923 89.9292 36.5222 89.9292 36.658C89.9292 36.7922 89.8949 36.9217 89.826 37.0455C89.7577 37.1694 89.6616 37.2665 89.5378 37.3349C89.4142 37.4029 89.2847 37.4372 89.1502 37.4372C89.0147 37.4372 88.8851 37.4029 88.7613 37.3349C88.6377 37.266 88.5419 37.1694 88.4733 37.0455C88.4037 36.9217 88.3696 36.7922 88.3696 36.658C88.3696 36.5222 88.4042 36.3923 88.4741 36.2677C88.5444 36.1422 88.6418 36.0459 88.7662 35.9794C88.8917 35.9114 89.0201 35.8779 89.1505 35.8779ZM89.1505 36.0064C89.0414 36.0064 88.9347 36.0347 88.8304 36.0916C88.7264 36.1471 88.6456 36.2274 88.5871 36.3325C88.5289 36.4362 88.4995 36.5447 88.4995 36.6574C88.4995 36.7701 88.5278 36.8779 88.5846 36.9808C88.6426 37.0834 88.7232 37.1639 88.8271 37.2219C88.93 37.2785 89.0375 37.3071 89.1505 37.3071C89.2626 37.3071 89.3709 37.2785 89.4738 37.2219C89.5767 37.1639 89.6573 37.0834 89.7144 36.9808C89.7719 36.8771 89.7999 36.7701 89.7999 36.6574C89.7999 36.5447 89.7708 36.4362 89.7125 36.3325C89.6546 36.2274 89.5737 36.1471 89.4692 36.0916C89.3658 36.035 89.2599 36.0064 89.1505 36.0064ZM88.8089 37.0885V36.2494H89.0977C89.1959 36.2494 89.2678 36.2573 89.3113 36.2734C89.3554 36.2884 89.39 36.3153 89.4169 36.3542C89.4433 36.3929 89.4567 36.4334 89.4567 36.477C89.4567 36.5382 89.4344 36.5918 89.3903 36.637C89.3473 36.6822 89.2893 36.7083 89.2169 36.7132C89.2457 36.7257 89.2697 36.7407 89.2882 36.7576C89.3217 36.7908 89.3631 36.8463 89.412 36.9239L89.5147 37.0883H89.3489L89.2751 36.9563C89.2164 36.852 89.1693 36.7873 89.1333 36.7609C89.1086 36.7415 89.0724 36.732 89.0247 36.732H88.9455V37.0888L88.8089 37.0885ZM88.9445 36.6163H89.1088C89.1875 36.6163 89.2406 36.6046 89.2689 36.5812C89.2975 36.5584 89.3124 36.5271 89.3124 36.4881C89.3124 36.4634 89.3056 36.4411 89.292 36.4223C89.2781 36.4021 89.2588 36.3877 89.234 36.3776C89.2093 36.3681 89.1649 36.3632 89.0985 36.3632H88.9447V36.6163" fill="white"/>
</svg>
