<svg width="21" height="17" viewBox="0 0 21 17" fill="none" xmlns="http://www.w3.org/2000/svg">
<g clip-path="url(#clip0_741_51)">
<path d="M4.725 0C5.42119 0 6.08887 0.276562 6.58115 0.768845C7.07344 1.26113 7.35 1.92881 7.35 2.625C7.35 3.32119 7.07344 3.98887 6.58115 4.48115C6.08887 4.97344 5.42119 5.25 4.725 5.25C4.02881 5.25 3.36113 4.97344 2.86884 4.48115C2.37656 3.98887 2.1 3.32119 2.1 2.625C2.1 1.92881 2.37656 1.26113 2.86884 0.768845C3.36113 0.276562 4.02881 0 4.725 0ZM16.8 0C17.4962 0 18.1639 0.276562 18.6562 0.768845C19.1484 1.26113 19.425 1.92881 19.425 2.625C19.425 3.32119 19.1484 3.98887 18.6562 4.48115C18.1639 4.97344 17.4962 5.25 16.8 5.25C16.1038 5.25 15.4361 4.97344 14.9438 4.48115C14.4516 3.98887 14.175 3.32119 14.175 2.625C14.175 1.92881 14.4516 1.26113 14.9438 0.768845C15.4361 0.276562 16.1038 0 16.8 0ZM0 9.80109C0 7.86844 1.56844 6.3 3.50109 6.3H4.90219C5.42391 6.3 5.91937 6.41484 6.36562 6.61828C6.32297 6.85453 6.30328 7.10062 6.30328 7.35C6.30328 8.60344 6.85453 9.72891 7.72406 10.5C7.7175 10.5 7.71094 10.5 7.70109 10.5H0.698906C0.315 10.5 0 10.185 0 9.80109ZM13.2989 10.5C13.2923 10.5 13.2858 10.5 13.2759 10.5C14.1487 9.72891 14.6967 8.60344 14.6967 7.35C14.6967 7.10062 14.6737 6.85781 14.6344 6.61828C15.0806 6.41156 15.5761 6.3 16.0978 6.3H17.4989C19.4316 6.3 21 7.86844 21 9.80109C21 10.1883 20.685 10.5 20.3011 10.5H13.2989ZM7.35 7.35C7.35 6.51457 7.68187 5.71335 8.27261 5.12261C8.86335 4.53187 9.66457 4.2 10.5 4.2C11.3354 4.2 12.1366 4.53187 12.7274 5.12261C13.3181 5.71335 13.65 6.51457 13.65 7.35C13.65 8.18543 13.3181 8.98665 12.7274 9.57739C12.1366 10.1681 11.3354 10.5 10.5 10.5C9.66457 10.5 8.86335 10.1681 8.27261 9.57739C7.68187 8.98665 7.35 8.18543 7.35 7.35ZM4.2 15.9239C4.2 13.5089 6.15891 11.55 8.5739 11.55H12.4261C14.8411 11.55 16.8 13.5089 16.8 15.9239C16.8 16.4062 16.4095 16.8 15.9239 16.8H5.07609C4.59375 16.8 4.2 16.4095 4.2 15.9239Z" fill="#808AA1"/>
</g>
<defs>
<clipPath id="clip0_741_51">
<rect width="21" height="16.8" fill="white"/>
</clipPath>
</defs>
</svg>
