<svg width="21" height="17" viewBox="0 0 21 17" fill="none" xmlns="http://www.w3.org/2000/svg">
<g clip-path="url(#clip0_730_4)">
<path d="M12.5016 3.77011L6.10641 1.37152C5.55844 1.16808 4.95141 1.19761 4.42969 1.46011L2.92359 2.21152C2.55937 2.39527 2.53312 2.90386 2.87437 3.12371L7.69453 6.22449L4.4625 7.87496L2.55281 7.02511C2.26734 6.89714 1.93594 6.90371 1.65703 7.0448L0.600469 7.57308C0.295312 7.7273 0.213281 8.12433 0.436406 8.38355L2.835 11.1825C3.03516 11.4154 3.32719 11.55 3.63234 11.55H8.15062C8.31469 11.55 8.47547 11.5106 8.61984 11.4384L17.5744 6.96277C19.1002 6.19824 20.2814 4.88574 20.8819 3.28777C21.1936 2.46089 20.58 1.57496 19.6941 1.57496H17.8106C17.1478 1.57496 16.4916 1.73246 15.9009 2.03433L12.5016 3.77011ZM0 15.75C0 16.3307 0.469219 16.8 1.05 16.8H19.95C20.5308 16.8 21 16.3307 21 15.75C21 15.1692 20.5308 14.7 19.95 14.7H1.05C0.469219 14.7 0 15.1692 0 15.75Z" fill="#636D84"/>
</g>
<defs>
<clipPath id="clip0_730_4">
<rect width="21" height="16.8" fill="white"/>
</clipPath>
</defs>
</svg>
