<svg width="70" height="56" viewBox="0 0 70 56" fill="none" xmlns="http://www.w3.org/2000/svg">
<g clip-path="url(#clip0_701_60)">
<path d="M58.6128 21C62.7691 21 70 24.1719 70 28C70 31.9375 62.7691 35 58.6128 35H44.4427L32.2292 54.2391C31.5365 55.3328 30.2483 56 28.8507 56H22.0208C20.7326 56 19.7969 54.8844 20.1493 53.7687L26.1042 35H13.6111L8.36111 41.3C7.99653 41.7375 7.41319 42 6.80556 42H1.70139C0.753472 42 0 41.3109 0 40.4688C0 40.3266 0.0243056 40.1844 0.0607639 40.0422L3.88889 28L0.0607639 15.9578C0.0121528 15.8156 0 15.6734 0 15.5312C0 14.6781 0.765625 14 1.70139 14H6.80556C7.41319 14 7.99653 14.2625 8.36111 14.7L13.6111 21H26.1163L20.1615 2.23125C19.7969 1.11563 20.7326 0 22.0208 0H28.8507C30.2483 0 31.5365 0.678125 32.2292 1.76094L44.4427 21H58.6128Z" fill="#F5F5F5"/>
</g>
<defs>
<clipPath id="clip0_701_60">
<rect width="70" height="56" fill="white"/>
</clipPath>
</defs>
</svg>
