<svg width="21" height="17" viewBox="0 0 21 17" fill="none" xmlns="http://www.w3.org/2000/svg">
<g clip-path="url(#clip0_730_2)">
<path d="M0.00984375 5.47641L0 2.23125C0 1.89328 0.311719 1.64391 0.639844 1.71609L1.80797 1.97531C2.15578 2.05078 2.43797 2.30016 2.56266 2.63156L3.15 4.2L7.32703 5.43375L5.96531 0.669375C5.87016 0.334688 6.12281 0 6.47062 0H7.78641C8.16703 0 8.51484 0.203437 8.70187 0.534844L12.2784 6.89391L15.7959 7.93406C16.3177 8.08828 16.8066 8.34422 17.2298 8.68219L18.3586 9.58781C19.1461 10.2178 18.9525 11.468 18.0075 11.8256C16.6556 12.3375 15.1791 12.4195 13.7812 12.0553L3.99328 9.50906C3.62906 9.41391 3.29766 9.22359 3.03187 8.95453L0.311719 6.21469C0.118125 6.01781 0.0065625 5.75531 0.0065625 5.47641H0.00984375ZM1.05 14.7H19.95C20.5308 14.7 21 15.1692 21 15.75C21 16.3308 20.5308 16.8 19.95 16.8H1.05C0.469219 16.8 0 16.3308 0 15.75C0 15.1692 0.469219 14.7 1.05 14.7ZM4.2 12.075C4.2 11.7965 4.31062 11.5295 4.50754 11.3325C4.70445 11.1356 4.97152 11.025 5.25 11.025C5.52848 11.025 5.79555 11.1356 5.99246 11.3325C6.18937 11.5295 6.3 11.7965 6.3 12.075C6.3 12.3535 6.18937 12.6205 5.99246 12.8175C5.79555 13.0144 5.52848 13.125 5.25 13.125C4.97152 13.125 4.70445 13.0144 4.50754 12.8175C4.31062 12.6205 4.2 12.3535 4.2 12.075ZM8.4 11.55C8.67848 11.55 8.94555 11.6606 9.14246 11.8575C9.33937 12.0545 9.45 12.3215 9.45 12.6C9.45 12.8785 9.33937 13.1455 9.14246 13.3425C8.94555 13.5394 8.67848 13.65 8.4 13.65C8.12152 13.65 7.85445 13.5394 7.65754 13.3425C7.46062 13.1455 7.35 12.8785 7.35 12.6C7.35 12.3215 7.46062 12.0545 7.65754 11.8575C7.85445 11.6606 8.12152 11.55 8.4 11.55Z" fill="#636D84"/>
</g>
<defs>
<clipPath id="clip0_730_2">
<rect width="21" height="16.8" fill="white"/>
</clipPath>
</defs>
</svg>
