<svg width="24" height="24" viewBox="0 0 24 24" fill="none" xmlns="http://www.w3.org/2000/svg">
<path d="M8.56416 4.62695C9.1609 4.62695 9.7332 4.3899 10.1552 3.96794C10.5771 3.54599 10.8142 2.97369 10.8142 2.37695C10.8142 1.78022 10.5771 1.20792 10.1552 0.785963C9.7332 0.364006 9.1609 0.126953 8.56416 0.126953C7.96743 0.126953 7.39513 0.364006 6.97317 0.785963C6.55121 1.20792 6.31416 1.78022 6.31416 2.37695C6.31416 2.97369 6.55121 3.54599 6.97317 3.96794C7.39513 4.3899 7.96743 4.62695 8.56416 4.62695ZM5.28291 2.56445C5.28291 1.01758 5.28291 2.56445 5.28291 1.01758C5.0626 0.436328 3.98916 0.56565 3.40791 0.785963C0.571974 1.85471 1.9548 8.79883 2.3298 12.2676C2.70479 16.4395 2.62511 16.0551 3.78294 23.3442C6.03294 23.3442 17.7517 23.3442 17.7517 23.3442C17.7517 23.3442 16.5517 17.766 16.0032 17.4707C15.4548 17.1754 10.1579 17.4238 8.65791 17.1098C1.90793 11.6113 19.2985 14.2129 17.7517 12.7832C16.0032 7.20508 5.56418 14.6113 5.70479 7.43945C5.4798 5.14258 5.70479 7.43945 5.28291 2.56445ZM11.7423 8.37695L11.6532 7.92227C11.4423 6.87695 10.5282 6.12695 9.45948 6.12695C8.04854 6.12695 6.98916 7.41602 7.26572 8.79883L8.34854 14.2129C8.62979 15.6145 9.85791 16.6223 11.2923 16.6223H11.5314C11.5501 16.6223 11.5689 16.6223 11.5923 16.6223H16.0032C16.3173 16.6223 16.5938 16.8145 16.7063 17.1098L18.4079 21.652C18.6892 22.4066 19.5235 22.8051 20.2876 22.5473L22.5376 21.7973C23.3251 21.5348 23.747 20.6863 23.4845 19.8988C23.222 19.1113 22.3735 18.6895 21.586 18.952L20.7095 19.2426L19.5142 16.0551C18.9657 14.5926 17.5642 13.6223 16.0032 13.6223H12.7923L12.3423 11.3723H15.3142C16.1438 11.3723 16.8142 10.702 16.8142 9.87226C16.8142 9.04258 16.1438 8.37226 15.3142 8.37226H11.7423V8.37695Z" fill="#DE7901"/>
</svg>
