<svg width="100" height="23" viewBox="0 0 100 23" fill="none" xmlns="http://www.w3.org/2000/svg">
<g clip-path="url(#clip0_443_558)">
<mask id="mask0_443_558" style="mask-type:luminance" maskUnits="userSpaceOnUse" x="-97" y="-393" width="218" height="435">
<path d="M-96.5698 41.1709H120.258V-392.478H-96.5698V41.1709Z" fill="white"/>
</mask>
<g mask="url(#mask0_443_558)">
<path d="M33.3637 14.4402C33.7899 14.7477 34.2306 14.9881 34.6867 15.1614C35.1434 15.3355 35.633 15.4222 36.1568 15.4222C36.7286 15.4222 37.1694 15.3079 37.4804 15.0798C37.79 14.8518 37.9452 14.5342 37.9452 14.1277C37.9452 13.88 37.911 13.6658 37.8432 13.4874C37.7755 13.3096 37.664 13.1457 37.5088 12.9971C37.3537 12.8492 37.1504 12.7072 36.8984 12.5731C36.6463 12.4398 36.3403 12.2883 35.9819 12.1193C35.5747 11.9313 35.2083 11.7404 34.8834 11.5467C34.5585 11.3543 34.2816 11.1336 34.0543 10.8845C33.827 10.6375 33.6522 10.3476 33.5306 10.0147C33.4096 9.68246 33.3492 9.28398 33.3492 8.81774C33.3492 8.33111 33.4358 7.89839 33.6114 7.51593C33.7855 7.1342 34.0303 6.81148 34.3457 6.54923C34.6604 6.28624 35.0385 6.0859 35.48 5.94676C35.9207 5.80762 36.4132 5.73914 36.9566 5.73914C37.5088 5.73914 38.0224 5.80762 38.4981 5.94676C38.9731 6.0859 39.3752 6.26366 39.7052 6.4822L39.341 8.29687C39.0307 8.04846 38.6795 7.84084 38.2869 7.67183C37.8942 7.50355 37.4659 7.41904 36.9996 7.41904C36.5341 7.41904 36.1509 7.52904 35.8508 7.74686C35.5499 7.96468 35.3999 8.26263 35.3999 8.63926C35.3999 8.86655 35.4363 9.06033 35.5084 9.21914C35.582 9.37722 35.6883 9.52219 35.8289 9.65041C35.9688 9.77935 36.1466 9.90101 36.36 10.0147C36.5727 10.129 36.8204 10.2507 37.1016 10.3796C37.5088 10.5683 37.892 10.7563 38.2504 10.9442C38.6096 11.1336 38.9192 11.3543 39.1815 11.6064C39.4437 11.8592 39.6513 12.1542 39.8072 12.4915C39.9624 12.8288 40.0396 13.2411 40.0396 13.7263C40.0396 14.8074 39.6856 15.6437 38.9782 16.233C38.2694 16.8224 37.2903 17.1182 36.0395 17.1182C35.429 17.1182 34.8783 17.0358 34.3887 16.8727C33.8992 16.7088 33.4796 16.5179 33.1306 16.3001L33.3637 14.4402Z" fill="#1A428A"/>
<path d="M40.889 8.96708H42.8232V14.2763C42.8232 14.6835 42.9018 14.9983 43.0563 15.2212C43.2122 15.4441 43.4584 15.557 43.7972 15.557C44.0987 15.557 44.3486 15.463 44.5475 15.2736C44.7456 15.0849 44.9278 14.8322 45.0924 14.5145V8.96708H46.9981V16.9404H45.1507V15.9722C45.0742 16.0917 44.978 16.2177 44.8666 16.3518C44.7558 16.4858 44.6218 16.6104 44.4681 16.7241C44.3122 16.8377 44.1352 16.9331 43.9356 17.0067C43.7381 17.081 43.5116 17.1182 43.2603 17.1182C42.8334 17.1182 42.4691 17.0533 42.169 16.9251C41.8696 16.7962 41.6241 16.6104 41.4347 16.3664C41.2453 16.1238 41.1068 15.8317 41.0201 15.49C40.9335 15.1469 40.889 14.7673 40.889 14.3514V8.96708Z" fill="#1A428A"/>
<path d="M48.1885 8.9671H50.036V9.91851C50.1045 9.79977 50.1962 9.67374 50.3135 9.53897C50.4286 9.40492 50.5641 9.28108 50.7193 9.16744C50.8737 9.05306 51.0515 8.95982 51.2504 8.88478C51.45 8.81048 51.6736 8.77332 51.9264 8.77332C52.7802 8.77332 53.3892 9.02392 53.7527 9.5244C54.117 10.0256 54.2976 10.6973 54.2976 11.5394V16.9404H52.3635V11.6137C52.3635 11.2079 52.2856 10.8932 52.1304 10.6703C51.9759 10.4467 51.7283 10.3352 51.3888 10.3352C51.0872 10.3352 50.8388 10.4292 50.6406 10.6179C50.441 10.8058 50.2589 11.0586 50.0943 11.3769V16.9404H48.1885V8.9671Z" fill="#1A428A"/>
<path d="M55.5608 5.91764H61.5388L61.466 7.62814H57.597V10.3643H60.7535V12.0756H57.597V15.2292H61.7275V16.9404H55.5608V5.91764Z" fill="#1A428A"/>
<path d="M62.2994 16.9404C62.5128 16.5623 62.719 16.2039 62.9186 15.8608C63.1167 15.5191 63.3222 15.1695 63.5363 14.8125C63.7294 14.4956 63.9312 14.1729 64.1388 13.8458C64.3479 13.518 64.5489 13.2011 64.7427 12.8929C64.53 12.5658 64.3231 12.2337 64.1257 11.8971C63.9275 11.5591 63.7294 11.2276 63.5363 10.8998C63.3418 10.5829 63.1568 10.2609 62.9841 9.93308C62.8086 9.60599 62.6286 9.284 62.4443 8.9671H64.613L65.0917 9.90394C65.19 10.0919 65.3015 10.3046 65.426 10.5428C65.5528 10.781 65.6832 11.0098 65.8194 11.2276C65.9455 11.0287 66.0853 10.8014 66.2405 10.5428C66.3964 10.2849 66.5312 10.0569 66.6477 9.8595C66.7366 9.71963 66.8182 9.57685 66.8961 9.42751C66.9734 9.2789 67.0564 9.12518 67.1438 8.9671H69.18C68.984 9.30367 68.799 9.62639 68.6205 9.93308C68.4398 10.2405 68.2548 10.5581 68.0603 10.8845C67.8752 11.1926 67.6836 11.5073 67.4855 11.8301C67.2859 12.1521 67.0906 12.4566 66.8961 12.7443C67.0906 13.0627 67.2961 13.3992 67.5139 13.7569C67.7317 14.1124 67.9386 14.4657 68.1331 14.8125C68.3262 15.1593 68.5229 15.5053 68.721 15.8543C68.9199 16.201 69.1202 16.5623 69.3249 16.9404H67.1577L66.5472 15.8237L65.7757 14.4708L65.005 15.7639C64.8972 15.9424 64.7886 16.1282 64.6772 16.3212C64.5671 16.5157 64.452 16.7204 64.3369 16.9404H62.2994Z" fill="#1A428A"/>
<path d="M70.0214 8.96636H71.9264V9.54551C72.1019 9.32696 72.327 9.14338 72.6017 8.9955C72.88 8.84689 73.2027 8.77258 73.5699 8.77258C74.4623 8.77258 75.1631 9.11716 75.6715 9.80558C76.1815 10.4955 76.4343 11.519 76.4343 12.8776C76.4343 14.3055 76.1815 15.3691 75.6715 16.0684C75.1631 16.7678 74.487 17.1174 73.6427 17.1174C73.3906 17.1174 73.1743 17.0883 72.9885 17.0286C72.8035 16.9688 72.6418 16.8967 72.499 16.8122C72.3606 16.7277 72.244 16.6337 72.1515 16.5295C72.0597 16.4261 71.9861 16.3292 71.9264 16.2389V20.1953H71.8681H70.0214V8.96636ZM71.9264 14.87C72.0327 15.0405 72.1857 15.203 72.3853 15.3625C72.5835 15.5206 72.8173 15.6 73.0912 15.6C73.4686 15.6 73.7957 15.3902 74.0725 14.9684C74.3472 14.5466 74.487 13.88 74.487 12.968C74.487 12.0056 74.3515 11.3157 74.0798 10.899C73.8073 10.4831 73.4635 10.2747 73.0475 10.2747C72.7656 10.2747 72.5354 10.349 72.3555 10.4984C72.1763 10.647 72.0327 10.7905 71.9264 10.9282V14.87Z" fill="#1A428A"/>
<path d="M77.2917 8.9671H79.1399V10.215C79.2266 10.038 79.3315 9.86606 79.4531 9.70288C79.5726 9.53897 79.7139 9.39473 79.8735 9.27161C80.0345 9.14777 80.2239 9.04796 80.4417 8.97366C80.6595 8.89935 80.9079 8.86293 81.1906 8.86293C81.3851 8.86293 81.5541 8.8775 81.6991 8.90737L81.525 10.5428C81.4579 10.5239 81.3858 10.5086 81.3144 10.4991C81.2408 10.4889 81.1527 10.4838 81.0442 10.4838C80.6275 10.4838 80.2683 10.5756 79.9689 10.7599C79.668 10.9428 79.4109 11.2567 79.1982 11.704V16.9404H77.2917V8.9671Z" fill="#1A428A"/>
<path d="M87.68 16.3889C87.4272 16.6068 87.1096 16.7823 86.7271 16.9171C86.3432 17.0504 85.8471 17.1182 85.2359 17.1182C84.7136 17.1182 84.2335 17.0184 83.7949 16.8195C83.3593 16.6221 82.987 16.3394 82.676 15.9715C82.3664 15.6051 82.1267 15.1665 81.957 14.6559C81.7865 14.1452 81.7005 13.5828 81.7005 12.968C81.7005 11.6392 81.9832 10.6076 82.5463 9.87333C83.1065 9.14047 83.8743 8.77331 84.8432 8.77331C85.8136 8.77331 86.5428 9.08801 87.0331 9.71743C87.5233 10.3468 87.7681 11.197 87.7681 12.2686C87.7681 12.4471 87.7616 12.6314 87.7536 12.8193C87.7434 13.0073 87.7288 13.1552 87.7084 13.2652H83.623C83.6318 13.6025 83.6944 13.9099 83.811 14.1867C83.9275 14.4657 84.0798 14.7054 84.2692 14.9087C84.4571 15.1119 84.6735 15.27 84.9168 15.3851C85.1594 15.4987 85.4151 15.5563 85.6876 15.5563C86.4233 15.5563 87.0455 15.3122 87.5488 14.8263L87.68 16.3889ZM85.9054 11.9262C85.8755 10.7264 85.5229 10.1261 84.8432 10.1261C84.514 10.1261 84.2393 10.2696 84.023 10.5581C83.8037 10.8451 83.6762 11.3019 83.6361 11.9262H85.9054Z" fill="#1A428A"/>
<path d="M88.6853 14.8125C88.965 15.0208 89.2929 15.211 89.6673 15.3851C90.041 15.5577 90.4257 15.6452 90.8234 15.6452C90.9495 15.6452 91.0777 15.6328 91.2095 15.608C91.3392 15.584 91.4528 15.5417 91.5505 15.482C91.6473 15.4222 91.7275 15.3406 91.7909 15.2365C91.8542 15.1323 91.8848 15.0012 91.8848 14.8416C91.8848 14.5444 91.769 14.3084 91.5359 14.135C91.3042 13.9616 91.0077 13.7999 90.65 13.652C90.3761 13.5333 90.1175 13.4014 89.8713 13.2572C89.6236 13.1144 89.4065 12.9454 89.2251 12.7516C89.0401 12.5593 88.8937 12.3313 88.7873 12.0675C88.6795 11.8046 88.627 11.4949 88.627 11.138C88.627 10.7708 88.7057 10.4408 88.8601 10.1487C89.0146 9.85657 89.2178 9.60889 89.4699 9.40491C89.7227 9.20239 90.0163 9.04503 90.3514 8.93649C90.6857 8.82794 91.0325 8.77331 91.3909 8.77331C91.8564 8.77331 92.2629 8.82284 92.6126 8.92119C92.9608 9.02099 93.2763 9.14411 93.5582 9.29345L93.309 10.8262C93.057 10.6572 92.7765 10.5086 92.4669 10.3796C92.1573 10.2507 91.8171 10.1859 91.4477 10.1859C91.2154 10.1859 90.9975 10.2529 90.7936 10.3869C90.5918 10.521 90.4876 10.7162 90.4876 10.9748C90.4876 11.1037 90.5138 11.2174 90.5619 11.3165C90.61 11.4148 90.6865 11.5102 90.7936 11.5991C90.9014 11.6887 91.0412 11.7776 91.2154 11.8672C91.3909 11.9561 91.6044 12.0559 91.8564 12.1644C92.1078 12.273 92.3518 12.3983 92.5907 12.5367C92.8268 12.6751 93.0358 12.839 93.2158 13.0277C93.395 13.2149 93.5385 13.4393 93.6434 13.6964C93.7527 13.9543 93.8051 14.2567 93.8051 14.6027C93.8051 15.4077 93.5421 16.0276 93.0198 16.4633C92.4968 16.8996 91.7938 17.1182 90.9094 17.1182C90.4169 17.1182 89.9806 17.0679 89.601 16.9696C89.2251 16.8705 88.8536 16.7255 88.4959 16.5376L88.6853 14.8125Z" fill="#1A428A"/>
<path d="M94.4841 14.8125C94.7653 15.0208 95.0931 15.211 95.4661 15.3851C95.8376 15.5577 96.2237 15.6452 96.6215 15.6452C96.7482 15.6452 96.8765 15.6328 97.0061 15.608C97.1365 15.584 97.2516 15.5417 97.3492 15.482C97.4461 15.4222 97.5263 15.3406 97.5897 15.2365C97.6516 15.1323 97.6836 15.0012 97.6836 14.8416C97.6836 14.5444 97.5671 14.3084 97.3347 14.135C97.1008 13.9616 96.8065 13.7999 96.4474 13.652C96.1749 13.5333 95.9163 13.4014 95.6686 13.2572C95.4209 13.1144 95.2053 12.9454 95.0217 12.7516C94.8367 12.5593 94.6932 12.3313 94.5854 12.0675C94.4775 11.8046 94.4258 11.4949 94.4258 11.138C94.4258 10.7708 94.5023 10.4408 94.6575 10.1487C94.8119 9.85657 95.0166 9.60889 95.2687 9.40491C95.52 9.20239 95.8143 9.04503 96.1487 8.93649C96.4831 8.82794 96.8313 8.77331 97.1883 8.77331C97.6552 8.77331 98.0603 8.82284 98.4099 8.92119C98.7596 9.02099 99.0743 9.14411 99.3555 9.29345L99.1086 10.8262C98.8558 10.6572 98.576 10.5086 98.265 10.3796C97.9546 10.2507 97.6144 10.1859 97.2465 10.1859C97.0149 10.1859 96.7963 10.2529 96.5916 10.3869C96.3891 10.521 96.2871 10.7162 96.2871 10.9748C96.2871 11.1037 96.3119 11.2174 96.3592 11.3165C96.4088 11.4148 96.4853 11.5102 96.5916 11.5991C96.6987 11.6887 96.8393 11.7776 97.0149 11.8672C97.1883 11.9561 97.4024 12.0559 97.6552 12.1644C97.9051 12.273 98.1513 12.3983 98.3895 12.5367C98.6256 12.6751 98.8346 12.839 99.0139 13.0277C99.1938 13.2149 99.3358 13.4393 99.4422 13.6964C99.55 13.9543 99.6032 14.2567 99.6032 14.6027C99.6032 15.4077 99.3424 16.0276 98.8172 16.4633C98.2948 16.8996 97.5904 17.1182 96.7082 17.1182C96.2143 17.1182 95.7779 17.0679 95.3991 16.9696C95.0217 16.8705 94.6524 16.7255 94.294 16.5376L94.4841 14.8125Z" fill="#1A428A"/>
<path d="M14.2773 15.3506C10.4928 15.6274 5.25565 16.4608 1.49372 16.2568C1.89075 17.0611 2.38612 17.818 2.97183 18.5115C3.29965 18.8961 3.6537 19.2633 4.03615 19.605C6.07884 21.4408 8.70796 22.4512 11.4383 22.4512C14.1855 22.4512 16.8117 21.4575 18.8347 19.653C19.671 18.9078 20.3478 18.1072 20.8861 17.2286C21.2504 16.6334 21.5498 16.0033 21.7902 15.328C20.17 15.006 17.3967 15.1218 14.2773 15.3506Z" fill="#1A428A"/>
<path d="M5.34598 2.28587C5.27677 2.27057 5.20538 2.28441 5.14783 2.32521C4.9475 2.46289 4.74643 2.61224 4.55338 2.76595C4.45504 2.84317 4.42808 2.98085 4.49 3.08867L6.36587 6.33774L6.46276 6.46814L6.45839 6.47469L6.32799 6.37707L3.076 4.49975C2.96965 4.43783 2.8305 4.46333 2.75401 4.56168C2.6003 4.75545 2.45315 4.95579 2.31473 5.15685C2.27539 5.21513 2.26155 5.28725 2.27685 5.35427C2.29288 5.42275 2.33586 5.48176 2.39632 5.51746L7.94378 8.71844L8.06908 8.75195C8.13901 8.75195 8.20895 8.72281 8.25849 8.66599C8.38306 8.52394 8.5171 8.38844 8.6577 8.26532C8.74876 8.18592 8.77061 8.05406 8.71015 7.95061L5.50916 2.40607C5.47347 2.34415 5.41519 2.30117 5.34598 2.28587Z" fill="#1A428A"/>
<path d="M20.5641 5.35326C20.5794 5.28624 20.5663 5.21412 20.5263 5.15584C20.3871 4.95478 20.2385 4.75444 20.0841 4.56066C20.0076 4.46232 19.8699 4.43682 19.7628 4.49874L16.5123 6.3746L16.3819 6.47077L16.3775 6.46712L16.4744 6.33672L18.351 3.08474C18.4129 2.97693 18.3867 2.83778 18.2883 2.76202C18.0953 2.60904 17.8942 2.46115 17.6932 2.32274C17.6363 2.28267 17.565 2.2681 17.4957 2.28486C17.4273 2.30016 17.369 2.34314 17.3333 2.4036L14.1316 7.95106L14.0981 8.07636C14.0981 8.14702 14.1287 8.21623 14.1848 8.26577C14.3268 8.38961 14.463 8.52438 14.5847 8.66571C14.6641 8.75604 14.7967 8.77862 14.9009 8.71816L20.4454 5.51644C20.5059 5.48075 20.5489 5.4232 20.5641 5.35326Z" fill="#1A428A"/>
<path d="M16.3025 1.59629C16.2806 1.52927 16.2333 1.47463 16.1699 1.44403C15.9492 1.33913 15.7204 1.24078 15.4895 1.14972C15.3737 1.10383 15.2433 1.14972 15.1799 1.25681L13.3033 4.50661L13.2384 4.65595L13.2319 4.65303L13.2508 4.49276V0.738125C13.2508 0.612824 13.159 0.506465 13.0345 0.488981C12.7904 0.453285 12.5435 0.426331 12.3009 0.406662C12.2309 0.401562 12.161 0.425602 12.1107 0.473683C12.0583 0.520307 12.0292 0.587327 12.0292 0.657262L12.0306 7.06215L12.0641 7.18745C12.0984 7.24792 12.1596 7.29381 12.2331 7.30911C12.4182 7.34553 12.6032 7.39361 12.7795 7.45481C12.8939 7.49269 13.0199 7.44534 13.0789 7.34189L16.2799 1.79662C16.3149 1.73543 16.3236 1.66331 16.3025 1.59629Z" fill="#1A428A"/>
<path d="M22.3781 10.7404C22.4262 10.6887 22.4488 10.6188 22.4437 10.5496C22.424 10.3062 22.3956 10.0578 22.3592 9.81233C22.3417 9.68994 22.236 9.59888 22.1115 9.59888L18.3583 9.59742L18.1973 9.61637L18.1958 9.60981L18.3445 9.5457L21.595 7.66838C21.7028 7.605 21.7501 7.47315 21.7028 7.35659C21.6117 7.12784 21.5119 6.89982 21.407 6.67982C21.3772 6.61644 21.3218 6.56836 21.2548 6.54796C21.1877 6.52757 21.1156 6.53558 21.0559 6.56982L15.5084 9.77299L15.4174 9.86478C15.3824 9.92525 15.3722 10.001 15.3963 10.0724C15.4582 10.2509 15.5084 10.4352 15.5434 10.6188C15.5674 10.7368 15.6709 10.8213 15.7896 10.8213H22.1931C22.263 10.8213 22.33 10.7914 22.3781 10.7404Z" fill="#1A428A"/>
<path d="M1.58696 6.54699C1.51994 6.56884 1.46458 6.61692 1.43471 6.67957C1.32981 6.90031 1.23146 7.12905 1.1404 7.35998C1.09305 7.47508 1.1404 7.60621 1.24749 7.66959L4.49728 9.54545L4.6459 9.61029L4.64298 9.61757L4.48344 9.59863H0.728803C0.604231 9.59863 0.497871 9.6897 0.480387 9.81427C0.444691 10.0583 0.417009 10.3053 0.397339 10.5493C0.392969 10.6192 0.41628 10.6885 0.463632 10.7395C0.510984 10.7897 0.578005 10.8203 0.64794 10.8203L7.0521 10.8189L7.17813 10.7861C7.23859 10.7496 7.28449 10.6899 7.29979 10.6163C7.33475 10.4306 7.38356 10.247 7.44476 10.07C7.4841 9.95559 7.43601 9.83029 7.3333 9.76983L1.7873 6.56884C1.72683 6.5346 1.65399 6.52659 1.58696 6.54699Z" fill="#1A428A"/>
<path d="M10.7295 0.47303C10.6785 0.426406 10.6086 0.402366 10.5387 0.407465C10.2954 0.427135 10.0477 0.455546 9.8029 0.491971C9.67906 0.510911 9.588 0.615814 9.588 0.740386L9.58727 4.49357L9.60621 4.65384L9.59965 4.65529L9.53482 4.50741L7.65823 1.25543C7.5963 1.14761 7.46299 1.10099 7.34643 1.14907C7.11769 1.24013 6.88967 1.33848 6.66966 1.44411C6.60701 1.47398 6.55748 1.52861 6.53708 1.59709C6.51595 1.66265 6.52542 1.73478 6.55966 1.79597L9.76211 7.34269L9.85462 7.43521C9.91655 7.46945 9.99012 7.47965 10.0615 7.45561C10.2407 7.39442 10.4243 7.34415 10.6086 7.30846C10.7266 7.28442 10.8119 7.18097 10.8119 7.0615L10.8104 0.658067C10.8104 0.586675 10.7813 0.519653 10.7295 0.47303Z" fill="#1A428A"/>
<path d="M21.7443 12.2054C19.4321 12.2054 17.6611 12.7678 13.0701 13.7425C6.57493 15.1223 1.9614 13.9829 0.903627 13.8467C0.746273 13.827 0.642828 13.9072 0.696008 14.0842C0.810381 14.6123 1.20158 15.7437 1.49589 16.2573C5.25854 16.4612 10.4957 15.6278 14.2794 15.351C17.3996 15.1223 20.1722 15.0064 21.7931 15.3284C22.0553 14.5912 22.2484 13.8037 22.3759 12.9528C22.4495 12.4662 22.3905 12.2054 21.7443 12.2054Z" fill="#EE5F2A"/>
<path d="M0.625366 12.9942C0.842457 13.0795 3.84529 14.1023 8.5069 14.1686C9.82984 14.1882 11.5178 13.9915 12.526 13.7715C11.9964 13.8553 10.8709 14.0243 9.47507 14.0192C6.78912 14.0098 2.71468 13.0678 0.781263 12.2053C0.701858 12.1689 0.607883 12.1827 0.536491 12.2344C0.465099 12.2869 0.42576 12.3714 0.433773 12.4603C0.443972 12.5841 0.456357 12.7079 0.469469 12.8318C0.481125 12.8922 0.499338 12.944 0.625366 12.9942Z" fill="#EE5F2A"/>
</g>
</g>
<defs>
<clipPath id="clip0_443_558">
<rect width="100" height="22.8571" fill="white"/>
</clipPath>
</defs>
</svg>
