<svg width="50" height="50" viewBox="0 0 50 50" fill="none" xmlns="http://www.w3.org/2000/svg">
<path d="M31.4784 33.8922C22.8958 34.52 11.019 36.41 2.48758 35.9474C3.38797 37.7713 4.51139 39.4878 5.83967 41.0606C6.58311 41.9329 7.38602 42.7656 8.25337 43.5404C12.8858 47.7037 18.8482 49.9951 25.0402 49.9951C31.2703 49.9951 37.2261 47.7417 41.8139 43.6494C43.7105 41.9594 45.2453 40.1437 46.4662 38.1513C47.2922 36.8015 47.9712 35.3725 48.5164 33.841C44.8422 33.1108 38.5527 33.3735 31.4784 33.8922Z" fill="#1A428A"/>
<path d="M11.2238 4.26379C11.0669 4.2291 10.905 4.26049 10.7745 4.353C10.3201 4.66525 9.86415 5.00393 9.42635 5.35252C9.20332 5.52764 9.14219 5.83988 9.28262 6.08439L13.5367 13.4527L13.7565 13.7484L13.7466 13.7633L13.4508 13.5419L6.07591 9.28449C5.83471 9.14406 5.51916 9.20189 5.34569 9.42492C4.9971 9.86437 4.66338 10.3187 4.34948 10.7747C4.26027 10.9068 4.22888 11.0704 4.26357 11.2224C4.29992 11.3777 4.39739 11.5115 4.53451 11.5925L17.1152 18.8517L17.3993 18.9277C17.5579 18.9277 17.7165 18.8617 17.8289 18.7328C18.1114 18.4106 18.4154 18.1033 18.7342 17.8241C18.9407 17.6441 18.9903 17.345 18.8532 17.1104L11.5939 4.53639C11.5129 4.39596 11.3808 4.29849 11.2238 4.26379Z" fill="#1A428A"/>
<path d="M45.736 11.2201C45.7707 11.0681 45.741 10.9045 45.6501 10.7724C45.3345 10.3164 44.9975 9.86208 44.6473 9.42262C44.4738 9.19959 44.1616 9.14177 43.9187 9.2822L36.5471 13.5363L36.2514 13.7544L36.2414 13.7461L36.4612 13.4504L40.7169 6.07549C40.8574 5.83098 40.7979 5.51543 40.5749 5.34361C40.1371 4.99668 39.6811 4.6613 39.2251 4.34741C39.0962 4.25654 38.9343 4.2235 38.7774 4.2615C38.6221 4.29619 38.4899 4.39366 38.409 4.53079L31.148 17.1114L31.0721 17.3956C31.0721 17.5559 31.1414 17.7128 31.2687 17.8251C31.5908 18.106 31.8997 18.4116 32.1756 18.7321C32.3557 18.937 32.6564 18.9882 32.8927 18.8511L45.4667 11.5902C45.6038 11.5092 45.7013 11.3787 45.736 11.2201Z" fill="#1A428A"/>
<path d="M36.0712 2.69914C36.0217 2.54715 35.9143 2.42325 35.7706 2.35386C35.27 2.11596 34.7512 1.89293 34.2275 1.68641C33.9648 1.58233 33.6691 1.68641 33.5254 1.92927L29.2696 9.29924L29.1226 9.63792L29.1077 9.63131L29.1506 9.26785V0.752983C29.1506 0.468824 28.9425 0.227619 28.66 0.187969C28.1065 0.107017 27.5465 0.0458899 26.9963 0.00128365C26.8377 -0.0102806 26.6791 0.0442371 26.5651 0.153275C26.4462 0.259009 26.3801 0.411001 26.3801 0.569601L26.3834 15.0948L26.4594 15.3789C26.537 15.516 26.6758 15.6201 26.8427 15.6548C27.2623 15.7374 27.6819 15.8465 28.0817 15.9852C28.3411 16.0712 28.6269 15.9638 28.7608 15.7292L36.02 3.15347C36.0993 3.01469 36.1192 2.85114 36.0712 2.69914Z" fill="#1A428A"/>
<path d="M49.8497 23.4377C49.9588 23.3204 50.01 23.1618 49.9984 23.0049C49.9538 22.4531 49.8894 21.8897 49.8068 21.333C49.7671 21.0554 49.5276 20.8489 49.2451 20.8489L40.7335 20.8456L40.3684 20.8885L40.3651 20.8737L40.7021 20.7283L48.0737 16.4709C48.3182 16.3271 48.4256 16.0281 48.3182 15.7638C48.1117 15.245 47.8854 14.7279 47.6475 14.229C47.5798 14.0852 47.4542 13.9762 47.3022 13.9299C47.1502 13.8837 46.9867 13.9019 46.8512 13.9795L34.2705 21.2437L34.064 21.4519C33.9847 21.589 33.9616 21.7608 34.0161 21.9227C34.1565 22.3275 34.2705 22.7455 34.3498 23.1618C34.4043 23.4295 34.6389 23.6211 34.9082 23.6211H49.4301C49.5887 23.6211 49.7407 23.5534 49.8497 23.4377Z" fill="#1A428A"/>
<path d="M2.69904 13.926C2.54705 13.9756 2.42149 14.0846 2.35375 14.2267C2.11585 14.7273 1.89282 15.2461 1.68631 15.7698C1.57892 16.0308 1.68631 16.3282 1.92917 16.4719L9.29914 20.726L9.63616 20.8731L9.62955 20.8896L9.26775 20.8466H0.752879C0.470371 20.8466 0.229166 21.0531 0.189516 21.3357C0.108564 21.8891 0.0457844 22.4492 0.00117795 23.0026C-0.00873458 23.1612 0.0441322 23.3182 0.151518 23.4338C0.258904 23.5478 0.410896 23.6172 0.569497 23.6172L15.093 23.6139L15.3788 23.5395C15.5159 23.4569 15.62 23.3215 15.6547 23.1546C15.734 22.7333 15.8447 22.317 15.9835 21.9155C16.0727 21.6562 15.9637 21.372 15.7307 21.2349L3.15336 13.9756C3.01624 13.8979 2.85103 13.8798 2.69904 13.926Z" fill="#1A428A"/>
<path d="M23.4328 0.152508C23.3172 0.0467739 23.1586 -0.00774574 23 0.00381851C22.4482 0.0484257 21.8865 0.112858 21.3314 0.195462C21.0505 0.238417 20.844 0.476318 20.844 0.758825L20.8423 9.27039L20.8853 9.63385L20.8704 9.63715L20.7234 9.30178L16.4676 1.92685C16.3272 1.68234 16.0248 1.57661 15.7605 1.68565C15.2418 1.89216 14.7247 2.11519 14.2257 2.35474C14.0836 2.42248 13.9713 2.54638 13.925 2.70168C13.8771 2.85037 13.8986 3.01393 13.9763 3.1527L21.2388 15.7317L21.4487 15.9415C21.5891 16.0192 21.7559 16.0423 21.9178 15.9878C22.3243 15.849 22.7406 15.735 23.1586 15.6541C23.4262 15.5995 23.6195 15.3649 23.6195 15.094L23.6162 0.57214C23.6162 0.410234 23.5501 0.258242 23.4328 0.152508Z" fill="#1A428A"/>
<path d="M48.4123 26.7585C43.1686 26.7585 39.1523 28.0339 28.7409 30.2444C14.0109 33.3735 3.54818 30.7896 1.14935 30.4807C0.792498 30.436 0.557902 30.6178 0.678504 31.0192C0.937882 32.217 1.82505 34.7827 2.4925 35.9474C11.0255 36.41 22.9024 34.52 31.4834 33.8922C38.5592 33.3735 44.8471 33.1108 48.523 33.841C49.1177 32.1691 49.5555 30.3832 49.8447 28.4535C50.0115 27.3499 49.8777 26.7585 48.4123 26.7585Z" fill="#EE5F2A"/>
<path d="M0.518309 28.5476C1.01063 28.7409 7.82054 31.0604 18.3923 31.2108C21.3925 31.2554 25.2203 30.8093 27.5068 30.3104C26.3058 30.5004 23.7533 30.8837 20.5879 30.8721C14.4966 30.8506 5.2565 28.7145 0.871856 26.7584C0.691779 26.6758 0.478659 26.7072 0.316755 26.8245C0.15485 26.9434 0.065637 27.1351 0.08381 27.3366C0.106939 27.6175 0.135025 27.8983 0.164762 28.1792C0.191196 28.3163 0.232498 28.4336 0.518309 28.5476Z" fill="#EE5F2A"/>
</svg>
