<svg width="70" height="56" viewBox="0 0 70 56" fill="none" xmlns="http://www.w3.org/2000/svg">
<g clip-path="url(#clip0_668_260)">
<path d="M15.75 0C18.0706 0 20.2962 0.921872 21.9372 2.56282C23.5781 4.20376 24.5 6.42936 24.5 8.75C24.5 11.0706 23.5781 13.2962 21.9372 14.9372C20.2962 16.5781 18.0706 17.5 15.75 17.5C13.4294 17.5 11.2038 16.5781 9.56282 14.9372C7.92187 13.2962 7 11.0706 7 8.75C7 6.42936 7.92187 4.20376 9.56282 2.56282C11.2038 0.921872 13.4294 0 15.75 0ZM56 0C58.3206 0 60.5462 0.921872 62.1872 2.56282C63.8281 4.20376 64.75 6.42936 64.75 8.75C64.75 11.0706 63.8281 13.2962 62.1872 14.9372C60.5462 16.5781 58.3206 17.5 56 17.5C53.6794 17.5 51.4538 16.5781 49.8128 14.9372C48.1719 13.2962 47.25 11.0706 47.25 8.75C47.25 6.42936 48.1719 4.20376 49.8128 2.56282C51.4538 0.921872 53.6794 0 56 0ZM0 32.6703C0 26.2281 5.22812 21 11.6703 21H16.3406C18.0797 21 19.7313 21.3828 21.2188 22.0609C21.0766 22.8484 21.0109 23.6688 21.0109 24.5C21.0109 28.6781 22.8484 32.4297 25.7469 35C25.725 35 25.7031 35 25.6703 35H2.32969C1.05 35 0 33.95 0 32.6703ZM44.3297 35C44.3078 35 44.2859 35 44.2531 35C47.1625 32.4297 48.9891 28.6781 48.9891 24.5C48.9891 23.6688 48.9125 22.8594 48.7812 22.0609C50.2687 21.3719 51.9203 21 53.6594 21H58.3297C64.7719 21 70 26.2281 70 32.6703C70 33.9609 68.95 35 67.6703 35H44.3297ZM24.5 24.5C24.5 21.7152 25.6062 19.0445 27.5754 17.0754C29.5445 15.1062 32.2152 14 35 14C37.7848 14 40.4555 15.1062 42.4246 17.0754C44.3938 19.0445 45.5 21.7152 45.5 24.5C45.5 27.2848 44.3938 29.9555 42.4246 31.9246C40.4555 33.8938 37.7848 35 35 35C32.2152 35 29.5445 33.8938 27.5754 31.9246C25.6062 29.9555 24.5 27.2848 24.5 24.5ZM14 53.0797C14 45.0297 20.5297 38.5 28.5797 38.5H41.4203C49.4703 38.5 56 45.0297 56 53.0797C56 54.6875 54.6984 56 53.0797 56H16.9203C15.3125 56 14 54.6984 14 53.0797Z" fill="white"/>
</g>
<defs>
<clipPath id="clip0_668_260">
<rect width="70" height="56" fill="white"/>
</clipPath>
</defs>
</svg>
