<svg width="80" height="26" viewBox="0 0 80 26" fill="none" xmlns="http://www.w3.org/2000/svg">
<g clip-path="url(#clip0_718_111)">
<path d="M34.6666 25.5173H28.186L32.2394 0.454102H38.7196L34.6666 25.5173Z" fill="#00579F"/>
<path d="M58.1591 1.06704C56.8809 0.559922 54.8535 0 52.3466 0C45.9468 0 41.4402 3.41269 41.4125 8.2918C41.3594 11.8916 44.6392 13.891 47.0922 15.0913C49.5994 16.3178 50.4517 17.1184 50.4517 18.2116C50.4262 19.8907 48.4257 20.6647 46.5599 20.6647C43.9726 20.6647 42.5862 20.2656 40.4794 19.3315L39.6261 18.931L38.7192 24.5572C40.2392 25.2496 43.0395 25.8641 45.9468 25.8911C52.7467 25.8911 57.1736 22.5312 57.2261 17.3317C57.2519 14.4786 55.5201 12.2924 51.7863 10.506C49.5197 9.3592 48.1316 8.58594 48.1316 7.41258C48.1582 6.3459 49.3057 5.25334 51.8643 5.25334C53.9711 5.19983 55.519 5.70624 56.6917 6.213L57.2778 6.47914L58.1591 1.06704Z" fill="#00579F"/>
<path d="M66.7726 16.6383C67.3063 15.1985 69.3599 9.62583 69.3599 9.62583C69.333 9.67934 69.8926 8.1594 70.2126 7.22632L70.6655 9.38591C70.6655 9.38591 71.8927 15.3852 72.1592 16.6383C71.1464 16.6383 68.0526 16.6383 66.7726 16.6383ZM74.772 0.454102H69.7593C68.2135 0.454102 67.0391 0.907 66.3721 2.53361L56.7461 25.517H63.5459C63.5459 25.517 64.6654 22.4236 64.9061 21.7573C65.652 21.7573 72.2669 21.7573 73.2266 21.7573C73.4126 22.6373 73.9998 25.517 73.9998 25.517H80.0002L74.772 0.454102Z" fill="#00579F"/>
<path d="M22.7731 0.454102L16.4265 17.5448L15.733 14.0786C14.5596 10.0791 10.8798 5.73367 6.77319 3.57301L12.5865 25.4907H19.4395L29.6258 0.454102H22.7731Z" fill="#00579F"/>
<path d="M10.5333 0.454102H0.106668L0 0.960511C8.13339 3.04037 13.52 8.0538 15.7331 14.0797L13.4665 2.56089C13.0933 0.960157 11.9465 0.506904 10.5333 0.454102Z" fill="#FAA61A"/>
</g>
<defs>
<clipPath id="clip0_718_111">
<rect width="80" height="25.8911" fill="white"/>
</clipPath>
</defs>
</svg>
